<mxfile host="app.diagrams.net" agent="Mozilla/5.0 (Windows NT 10.0; Win64; x64) AppleWebKit/537.36 (KHTML, like Gecko) Chrome/128.0.0.0 Safari/537.36 Edg/128.0.0.0" scale="1" border="0" version="24.7.13">
  <diagram name="Page-1" id="S3LYNkElfjQBXjydKo0I">
    <mxGraphModel dx="4736" dy="756" grid="1" gridSize="10" guides="1" tooltips="1" connect="1" arrows="1" fold="1" page="1" pageScale="1" pageWidth="850" pageHeight="1100" math="0" shadow="0">
      <root>
        <mxCell id="0" />
        <mxCell id="1" parent="0" />
        <mxCell id="5w9AlxM-pXS2CwVHZlCb-11" value="1" style="text;html=1;align=center;verticalAlign=middle;resizable=0;points=[];autosize=1;strokeColor=none;fillColor=none;fontSize=19;fontStyle=0" parent="1" vertex="1">
          <mxGeometry x="-2045" y="949" width="30" height="40" as="geometry" />
        </mxCell>
        <mxCell id="5w9AlxM-pXS2CwVHZlCb-12" value="1" style="text;html=1;align=center;verticalAlign=middle;resizable=0;points=[];autosize=1;strokeColor=none;fillColor=none;fontSize=19;fontStyle=0" parent="1" vertex="1">
          <mxGeometry x="-1780" y="1012" width="30" height="40" as="geometry" />
        </mxCell>
        <mxCell id="5w9AlxM-pXS2CwVHZlCb-42" value="Has" style="text;html=1;align=center;verticalAlign=middle;resizable=0;points=[];autosize=1;strokeColor=none;fillColor=none;fontSize=19;fontStyle=0" parent="1" vertex="1">
          <mxGeometry x="-1995" y="1247" width="60" height="40" as="geometry" />
        </mxCell>
        <mxCell id="5w9AlxM-pXS2CwVHZlCb-43" value="&lt;span style=&quot;color: rgb(17, 17, 17); font-family: Roboto, Helvetica, sans-serif; font-size: 19px; text-align: left; text-wrap: wrap; background-color: rgb(255, 255, 255);&quot;&gt;Apply&lt;/span&gt;" style="text;html=1;align=center;verticalAlign=middle;resizable=0;points=[];autosize=1;strokeColor=none;fillColor=none;fontSize=19;fontStyle=0" parent="1" vertex="1">
          <mxGeometry x="-1575" y="1093" width="70" height="40" as="geometry" />
        </mxCell>
        <mxCell id="5w9AlxM-pXS2CwVHZlCb-44" value="&lt;span style=&quot;color: rgb(17, 17, 17); font-family: Roboto, Helvetica, sans-serif; font-size: 19px; text-align: left; text-wrap: wrap; background-color: rgb(255, 255, 255);&quot;&gt;Has&lt;/span&gt;" style="text;html=1;align=center;verticalAlign=middle;resizable=0;points=[];autosize=1;strokeColor=none;fillColor=none;fontSize=19;fontStyle=0" parent="1" vertex="1">
          <mxGeometry x="-1535" y="1339" width="60" height="40" as="geometry" />
        </mxCell>
        <mxCell id="5w9AlxM-pXS2CwVHZlCb-45" value="Has" style="text;html=1;align=center;verticalAlign=middle;resizable=0;points=[];autosize=1;strokeColor=none;fillColor=none;fontSize=19;fontStyle=0" parent="1" vertex="1">
          <mxGeometry x="-550" y="1495" width="60" height="40" as="geometry" />
        </mxCell>
        <mxCell id="5w9AlxM-pXS2CwVHZlCb-46" value="Has" style="text;html=1;align=center;verticalAlign=middle;resizable=0;points=[];autosize=1;strokeColor=none;fillColor=none;fontSize=19;fontStyle=0" parent="1" vertex="1">
          <mxGeometry x="-1475" y="1650" width="60" height="40" as="geometry" />
        </mxCell>
        <mxCell id="5w9AlxM-pXS2CwVHZlCb-47" value="Has" style="text;html=1;align=center;verticalAlign=middle;resizable=0;points=[];autosize=1;strokeColor=none;fillColor=none;fontSize=19;fontStyle=0" parent="1" vertex="1">
          <mxGeometry x="-775" y="1405" width="60" height="40" as="geometry" />
        </mxCell>
        <mxCell id="5w9AlxM-pXS2CwVHZlCb-48" value="Has" style="text;html=1;align=center;verticalAlign=middle;resizable=0;points=[];autosize=1;strokeColor=none;fillColor=none;fontSize=19;fontStyle=0" parent="1" vertex="1">
          <mxGeometry x="-1060" y="1392" width="60" height="40" as="geometry" />
        </mxCell>
        <mxCell id="5w9AlxM-pXS2CwVHZlCb-50" value="1" style="text;html=1;align=center;verticalAlign=middle;resizable=0;points=[];autosize=1;strokeColor=none;fillColor=none;fontSize=19;fontStyle=0" parent="1" vertex="1">
          <mxGeometry x="-1560" y="1191" width="30" height="40" as="geometry" />
        </mxCell>
        <mxCell id="5w9AlxM-pXS2CwVHZlCb-51" value="1" style="text;html=1;align=center;verticalAlign=middle;resizable=0;points=[];autosize=1;strokeColor=none;fillColor=none;fontSize=19;fontStyle=0" parent="1" vertex="1">
          <mxGeometry x="-1860" y="1660" width="30" height="40" as="geometry" />
        </mxCell>
        <mxCell id="5w9AlxM-pXS2CwVHZlCb-52" value="1" style="text;html=1;align=center;verticalAlign=middle;resizable=0;points=[];autosize=1;strokeColor=none;fillColor=none;fontSize=19;fontStyle=0" parent="1" vertex="1">
          <mxGeometry x="-1535" y="1650" width="30" height="40" as="geometry" />
        </mxCell>
        <mxCell id="5w9AlxM-pXS2CwVHZlCb-53" value="1" style="text;html=1;align=center;verticalAlign=middle;resizable=0;points=[];autosize=1;strokeColor=none;fillColor=none;fontSize=19;fontStyle=0" parent="1" vertex="1">
          <mxGeometry x="-900" y="1635" width="30" height="40" as="geometry" />
        </mxCell>
        <mxCell id="5w9AlxM-pXS2CwVHZlCb-54" value="1" style="text;html=1;align=center;verticalAlign=middle;resizable=0;points=[];autosize=1;strokeColor=none;fillColor=none;fontSize=19;fontStyle=0" parent="1" vertex="1">
          <mxGeometry x="-940" y="1385" width="30" height="40" as="geometry" />
        </mxCell>
        <mxCell id="5w9AlxM-pXS2CwVHZlCb-55" value="1" style="text;html=1;align=center;verticalAlign=middle;resizable=0;points=[];autosize=1;strokeColor=none;fillColor=none;fontSize=19;fontStyle=0" parent="1" vertex="1">
          <mxGeometry x="-570" y="1365" width="30" height="40" as="geometry" />
        </mxCell>
        <mxCell id="5w9AlxM-pXS2CwVHZlCb-85" style="edgeStyle=orthogonalEdgeStyle;rounded=0;orthogonalLoop=1;jettySize=auto;html=1;entryX=0.998;entryY=0.708;entryDx=0;entryDy=0;endArrow=none;endFill=0;fontSize=19;fontStyle=0;entryPerimeter=0;exitX=0.5;exitY=0;exitDx=0;exitDy=0;" parent="1" source="5w9AlxM-pXS2CwVHZlCb-306" target="5w9AlxM-pXS2CwVHZlCb-213" edge="1">
          <mxGeometry relative="1" as="geometry" />
        </mxCell>
        <mxCell id="5w9AlxM-pXS2CwVHZlCb-160" style="edgeStyle=orthogonalEdgeStyle;rounded=0;orthogonalLoop=1;jettySize=auto;html=1;endArrow=none;endFill=0;fontSize=19;fontStyle=0;entryX=0.5;entryY=0;entryDx=0;entryDy=0;exitX=0;exitY=0.5;exitDx=0;exitDy=0;" parent="1" source="5w9AlxM-pXS2CwVHZlCb-320" target="5w9AlxM-pXS2CwVHZlCb-218" edge="1">
          <mxGeometry relative="1" as="geometry" />
        </mxCell>
        <mxCell id="5w9AlxM-pXS2CwVHZlCb-161" style="edgeStyle=orthogonalEdgeStyle;rounded=0;orthogonalLoop=1;jettySize=auto;html=1;endArrow=none;endFill=0;fontSize=19;fontStyle=0;entryX=0.482;entryY=0.969;entryDx=0;entryDy=0;entryPerimeter=0;" parent="1" source="5w9AlxM-pXS2CwVHZlCb-263" target="5w9AlxM-pXS2CwVHZlCb-226" edge="1">
          <mxGeometry relative="1" as="geometry">
            <mxPoint x="-2290" y="1560" as="targetPoint" />
            <Array as="points">
              <mxPoint x="-2079" y="1700" />
            </Array>
          </mxGeometry>
        </mxCell>
        <mxCell id="5w9AlxM-pXS2CwVHZlCb-163" style="edgeStyle=orthogonalEdgeStyle;rounded=0;orthogonalLoop=1;jettySize=auto;html=1;endArrow=none;endFill=0;fontSize=19;fontStyle=0;entryX=0.471;entryY=0.856;entryDx=0;entryDy=0;entryPerimeter=0;exitX=1;exitY=0.5;exitDx=0;exitDy=0;" parent="1" source="5w9AlxM-pXS2CwVHZlCb-284" target="5w9AlxM-pXS2CwVHZlCb-261" edge="1">
          <mxGeometry relative="1" as="geometry">
            <Array as="points">
              <mxPoint x="-490" y="1675" />
            </Array>
          </mxGeometry>
        </mxCell>
        <mxCell id="5w9AlxM-pXS2CwVHZlCb-165" style="edgeStyle=orthogonalEdgeStyle;rounded=0;orthogonalLoop=1;jettySize=auto;html=1;endArrow=none;endFill=0;fontSize=19;fontStyle=0;entryX=0.494;entryY=0.971;entryDx=0;entryDy=0;entryPerimeter=0;exitX=1;exitY=0.5;exitDx=0;exitDy=0;" parent="1" source="5w9AlxM-pXS2CwVHZlCb-304" target="5w9AlxM-pXS2CwVHZlCb-247" edge="1">
          <mxGeometry relative="1" as="geometry" />
        </mxCell>
        <mxCell id="5w9AlxM-pXS2CwVHZlCb-166" style="edgeStyle=orthogonalEdgeStyle;rounded=0;orthogonalLoop=1;jettySize=auto;html=1;endArrow=none;endFill=0;fontSize=19;fontStyle=0;entryX=0.5;entryY=0;entryDx=0;entryDy=0;exitX=1;exitY=0.5;exitDx=0;exitDy=0;" parent="1" source="5w9AlxM-pXS2CwVHZlCb-249" target="5w9AlxM-pXS2CwVHZlCb-282" edge="1">
          <mxGeometry relative="1" as="geometry" />
        </mxCell>
        <mxCell id="5w9AlxM-pXS2CwVHZlCb-167" value="1..*" style="text;html=1;align=center;verticalAlign=middle;resizable=0;points=[];autosize=1;strokeColor=none;fillColor=none;fontSize=19;fontStyle=0" parent="1" vertex="1">
          <mxGeometry x="-1485" y="1063" width="50" height="40" as="geometry" />
        </mxCell>
        <mxCell id="5w9AlxM-pXS2CwVHZlCb-168" value="1..*" style="text;html=1;align=center;verticalAlign=middle;resizable=0;points=[];autosize=1;strokeColor=none;fillColor=none;fontSize=19;fontStyle=0" parent="1" vertex="1">
          <mxGeometry x="-2065" y="1305" width="50" height="40" as="geometry" />
        </mxCell>
        <mxCell id="5w9AlxM-pXS2CwVHZlCb-169" value="1..*" style="text;html=1;align=center;verticalAlign=middle;resizable=0;points=[];autosize=1;strokeColor=none;fillColor=none;fontSize=19;fontStyle=0" parent="1" vertex="1">
          <mxGeometry x="-2080" y="1575" width="50" height="40" as="geometry" />
        </mxCell>
        <mxCell id="5w9AlxM-pXS2CwVHZlCb-170" value="Has" style="text;html=1;align=center;verticalAlign=middle;resizable=0;points=[];autosize=1;strokeColor=none;fillColor=none;fontSize=19;fontStyle=0" parent="1" vertex="1">
          <mxGeometry x="-1985" y="1660" width="60" height="40" as="geometry" />
        </mxCell>
        <mxCell id="5w9AlxM-pXS2CwVHZlCb-172" value="1..*" style="text;html=1;align=center;verticalAlign=middle;resizable=0;points=[];autosize=1;strokeColor=none;fillColor=none;fontSize=19;fontStyle=0" parent="1" vertex="1">
          <mxGeometry x="-1400" y="1660" width="50" height="40" as="geometry" />
        </mxCell>
        <mxCell id="5w9AlxM-pXS2CwVHZlCb-173" value="1..*" style="text;html=1;align=center;verticalAlign=middle;resizable=0;points=[];autosize=1;strokeColor=none;fillColor=none;fontSize=19;fontStyle=0" parent="1" vertex="1">
          <mxGeometry x="-1480" y="1339" width="50" height="40" as="geometry" />
        </mxCell>
        <mxCell id="5w9AlxM-pXS2CwVHZlCb-174" value="1..*" style="text;html=1;align=center;verticalAlign=middle;resizable=0;points=[];autosize=1;strokeColor=none;fillColor=none;fontSize=19;fontStyle=0" parent="1" vertex="1">
          <mxGeometry x="-1150" y="1362" width="50" height="40" as="geometry" />
        </mxCell>
        <mxCell id="5w9AlxM-pXS2CwVHZlCb-175" value="1" style="text;html=1;align=center;verticalAlign=middle;resizable=0;points=[];autosize=1;strokeColor=none;fillColor=none;fontSize=19;fontStyle=0" parent="1" vertex="1">
          <mxGeometry x="-1050" y="1165" width="30" height="40" as="geometry" />
        </mxCell>
        <mxCell id="5w9AlxM-pXS2CwVHZlCb-176" value="&lt;span style=&quot;color: rgb(17, 17, 17); font-family: Roboto, Helvetica, sans-serif; font-size: 19px; text-align: left; text-wrap: wrap; background-color: rgb(255, 255, 255);&quot;&gt;Apply&lt;/span&gt;" style="text;html=1;align=center;verticalAlign=middle;resizable=0;points=[];autosize=1;strokeColor=none;fillColor=none;fontSize=19;fontStyle=0" parent="1" vertex="1">
          <mxGeometry x="-1105" y="1105" width="70" height="40" as="geometry" />
        </mxCell>
        <mxCell id="5w9AlxM-pXS2CwVHZlCb-177" value="1..*" style="text;html=1;align=center;verticalAlign=middle;resizable=0;points=[];autosize=1;strokeColor=none;fillColor=none;fontSize=19;fontStyle=0" parent="1" vertex="1">
          <mxGeometry x="-1160" y="1042" width="50" height="40" as="geometry" />
        </mxCell>
        <mxCell id="5w9AlxM-pXS2CwVHZlCb-178" value="1..*" style="text;html=1;align=center;verticalAlign=middle;resizable=0;points=[];autosize=1;strokeColor=none;fillColor=none;fontSize=19;fontStyle=0" parent="1" vertex="1">
          <mxGeometry x="-1025" y="1635" width="50" height="40" as="geometry" />
        </mxCell>
        <mxCell id="5w9AlxM-pXS2CwVHZlCb-179" value="Has" style="text;html=1;align=center;verticalAlign=middle;resizable=0;points=[];autosize=1;strokeColor=none;fillColor=none;fontSize=19;fontStyle=0" parent="1" vertex="1">
          <mxGeometry x="-975" y="1635" width="60" height="40" as="geometry" />
        </mxCell>
        <mxCell id="5w9AlxM-pXS2CwVHZlCb-180" value="1" style="text;html=1;align=center;verticalAlign=middle;resizable=0;points=[];autosize=1;strokeColor=none;fillColor=none;fontSize=19;fontStyle=0" parent="1" vertex="1">
          <mxGeometry x="-750" y="1305" width="30" height="40" as="geometry" />
        </mxCell>
        <mxCell id="5w9AlxM-pXS2CwVHZlCb-181" value="1..*" style="text;html=1;align=center;verticalAlign=middle;resizable=0;points=[];autosize=1;strokeColor=none;fillColor=none;fontSize=19;fontStyle=0" parent="1" vertex="1">
          <mxGeometry x="-770" y="1515" width="50" height="40" as="geometry" />
        </mxCell>
        <mxCell id="5w9AlxM-pXS2CwVHZlCb-182" value="1..*" style="text;html=1;align=center;verticalAlign=middle;resizable=0;points=[];autosize=1;strokeColor=none;fillColor=none;fontSize=19;fontStyle=0" parent="1" vertex="1">
          <mxGeometry x="-545" y="1635" width="50" height="40" as="geometry" />
        </mxCell>
        <mxCell id="5w9AlxM-pXS2CwVHZlCb-207" value="&lt;span style=&quot;font-size: 19px; font-weight: 400; text-wrap: nowrap;&quot;&gt;user&lt;/span&gt;" style="swimlane;fontStyle=1;align=center;verticalAlign=top;childLayout=stackLayout;horizontal=1;startSize=26;horizontalStack=0;resizeParent=1;resizeParentMax=0;resizeLast=0;collapsible=1;marginBottom=0;whiteSpace=wrap;html=1;fontSize=19;" parent="1" vertex="1">
          <mxGeometry x="-2250" y="950" width="160" height="216" as="geometry" />
        </mxCell>
        <mxCell id="5w9AlxM-pXS2CwVHZlCb-213" value="&lt;span style=&quot;font-size: 19px;&quot;&gt;user_id : int (PK)&lt;/span&gt;" style="text;strokeColor=none;fillColor=none;align=left;verticalAlign=top;spacingLeft=4;spacingRight=4;overflow=hidden;rotatable=0;points=[[0,0.5],[1,0.5]];portConstraint=eastwest;whiteSpace=wrap;html=1;fontSize=19;" parent="5w9AlxM-pXS2CwVHZlCb-207" vertex="1">
          <mxGeometry y="26" width="160" height="26" as="geometry" />
        </mxCell>
        <mxCell id="5w9AlxM-pXS2CwVHZlCb-214" value="&lt;span style=&quot;font-size: 19px;&quot;&gt;username : string&lt;/span&gt;" style="text;strokeColor=none;fillColor=none;align=left;verticalAlign=top;spacingLeft=4;spacingRight=4;overflow=hidden;rotatable=0;points=[[0,0.5],[1,0.5]];portConstraint=eastwest;whiteSpace=wrap;html=1;fontSize=19;" parent="5w9AlxM-pXS2CwVHZlCb-207" vertex="1">
          <mxGeometry y="52" width="160" height="26" as="geometry" />
        </mxCell>
        <mxCell id="5w9AlxM-pXS2CwVHZlCb-215" value="&lt;span style=&quot;font-size: 19px;&quot;&gt;password : string&lt;/span&gt;" style="text;strokeColor=none;fillColor=none;align=left;verticalAlign=top;spacingLeft=4;spacingRight=4;overflow=hidden;rotatable=0;points=[[0,0.5],[1,0.5]];portConstraint=eastwest;whiteSpace=wrap;html=1;fontSize=19;" parent="5w9AlxM-pXS2CwVHZlCb-207" vertex="1">
          <mxGeometry y="78" width="160" height="26" as="geometry" />
        </mxCell>
        <mxCell id="5w9AlxM-pXS2CwVHZlCb-208" value="&lt;span style=&quot;font-size: 19px;&quot;&gt;user_role : string&lt;/span&gt;" style="text;strokeColor=none;fillColor=none;align=left;verticalAlign=top;spacingLeft=4;spacingRight=4;overflow=hidden;rotatable=0;points=[[0,0.5],[1,0.5]];portConstraint=eastwest;whiteSpace=wrap;html=1;fontSize=19;" parent="5w9AlxM-pXS2CwVHZlCb-207" vertex="1">
          <mxGeometry y="104" width="160" height="26" as="geometry" />
        </mxCell>
        <mxCell id="5w9AlxM-pXS2CwVHZlCb-209" value="" style="line;strokeWidth=1;fillColor=none;align=left;verticalAlign=middle;spacingTop=-1;spacingLeft=3;spacingRight=3;rotatable=0;labelPosition=right;points=[];portConstraint=eastwest;strokeColor=inherit;fontSize=19;" parent="5w9AlxM-pXS2CwVHZlCb-207" vertex="1">
          <mxGeometry y="130" width="160" height="8" as="geometry" />
        </mxCell>
        <mxCell id="5w9AlxM-pXS2CwVHZlCb-216" value="login()" style="text;strokeColor=none;fillColor=none;align=left;verticalAlign=top;spacingLeft=4;spacingRight=4;overflow=hidden;rotatable=0;points=[[0,0.5],[1,0.5]];portConstraint=eastwest;whiteSpace=wrap;html=1;fontSize=19;" parent="5w9AlxM-pXS2CwVHZlCb-207" vertex="1">
          <mxGeometry y="138" width="160" height="26" as="geometry" />
        </mxCell>
        <mxCell id="5w9AlxM-pXS2CwVHZlCb-217" value="register()" style="text;strokeColor=none;fillColor=none;align=left;verticalAlign=top;spacingLeft=4;spacingRight=4;overflow=hidden;rotatable=0;points=[[0,0.5],[1,0.5]];portConstraint=eastwest;whiteSpace=wrap;html=1;fontSize=19;" parent="5w9AlxM-pXS2CwVHZlCb-207" vertex="1">
          <mxGeometry y="164" width="160" height="26" as="geometry" />
        </mxCell>
        <mxCell id="5w9AlxM-pXS2CwVHZlCb-210" value="logout()" style="text;strokeColor=none;fillColor=none;align=left;verticalAlign=top;spacingLeft=4;spacingRight=4;overflow=hidden;rotatable=0;points=[[0,0.5],[1,0.5]];portConstraint=eastwest;whiteSpace=wrap;html=1;fontSize=19;" parent="5w9AlxM-pXS2CwVHZlCb-207" vertex="1">
          <mxGeometry y="190" width="160" height="26" as="geometry" />
        </mxCell>
        <mxCell id="5w9AlxM-pXS2CwVHZlCb-218" value="&lt;span style=&quot;font-size: 19px; font-weight: 400;&quot;&gt;StudentSkills&lt;/span&gt;" style="swimlane;fontStyle=1;align=center;verticalAlign=top;childLayout=stackLayout;horizontal=1;startSize=26;horizontalStack=0;resizeParent=1;resizeParentMax=0;resizeLast=0;collapsible=1;marginBottom=0;whiteSpace=wrap;html=1;fontSize=19;" parent="1" vertex="1">
          <mxGeometry x="-2220" y="1344" width="250" height="216" as="geometry" />
        </mxCell>
        <mxCell id="5w9AlxM-pXS2CwVHZlCb-219" value="student_id&amp;nbsp;&lt;span style=&quot;font-size: 19px;&quot;&gt;:&amp;nbsp;&lt;/span&gt;&lt;span style=&quot;font-size: 19px;&quot;&gt;string (PK,FK)&lt;/span&gt;" style="text;strokeColor=none;fillColor=none;align=left;verticalAlign=top;spacingLeft=4;spacingRight=4;overflow=hidden;rotatable=0;points=[[0,0.5],[1,0.5]];portConstraint=eastwest;whiteSpace=wrap;html=1;fontSize=19;" parent="5w9AlxM-pXS2CwVHZlCb-218" vertex="1">
          <mxGeometry y="26" width="250" height="26" as="geometry" />
        </mxCell>
        <mxCell id="5w9AlxM-pXS2CwVHZlCb-220" value="&lt;span style=&quot;font-size: 19px;&quot;&gt;skill_id :&lt;/span&gt;&lt;span style=&quot;font-size: 19px;&quot;&gt;int(PK,FK)&lt;/span&gt;" style="text;strokeColor=none;fillColor=none;align=left;verticalAlign=top;spacingLeft=4;spacingRight=4;overflow=hidden;rotatable=0;points=[[0,0.5],[1,0.5]];portConstraint=eastwest;whiteSpace=wrap;html=1;fontSize=19;" parent="5w9AlxM-pXS2CwVHZlCb-218" vertex="1">
          <mxGeometry y="52" width="250" height="26" as="geometry" />
        </mxCell>
        <mxCell id="5w9AlxM-pXS2CwVHZlCb-221" value="&lt;span style=&quot;font-size: 19px;&quot;&gt;skill_level : int&lt;/span&gt;" style="text;strokeColor=none;fillColor=none;align=left;verticalAlign=top;spacingLeft=4;spacingRight=4;overflow=hidden;rotatable=0;points=[[0,0.5],[1,0.5]];portConstraint=eastwest;whiteSpace=wrap;html=1;fontSize=19;" parent="5w9AlxM-pXS2CwVHZlCb-218" vertex="1">
          <mxGeometry y="78" width="250" height="26" as="geometry" />
        </mxCell>
        <mxCell id="5w9AlxM-pXS2CwVHZlCb-223" value="" style="line;strokeWidth=1;fillColor=none;align=left;verticalAlign=middle;spacingTop=-1;spacingLeft=3;spacingRight=3;rotatable=0;labelPosition=right;points=[];portConstraint=eastwest;strokeColor=inherit;fontSize=19;" parent="5w9AlxM-pXS2CwVHZlCb-218" vertex="1">
          <mxGeometry y="104" width="250" height="8" as="geometry" />
        </mxCell>
        <mxCell id="5w9AlxM-pXS2CwVHZlCb-224" value="Insert()" style="text;strokeColor=none;fillColor=none;align=left;verticalAlign=top;spacingLeft=4;spacingRight=4;overflow=hidden;rotatable=0;points=[[0,0.5],[1,0.5]];portConstraint=eastwest;whiteSpace=wrap;html=1;fontSize=19;" parent="5w9AlxM-pXS2CwVHZlCb-218" vertex="1">
          <mxGeometry y="112" width="250" height="26" as="geometry" />
        </mxCell>
        <mxCell id="5w9AlxM-pXS2CwVHZlCb-225" value="Update()" style="text;strokeColor=none;fillColor=none;align=left;verticalAlign=top;spacingLeft=4;spacingRight=4;overflow=hidden;rotatable=0;points=[[0,0.5],[1,0.5]];portConstraint=eastwest;whiteSpace=wrap;html=1;fontSize=19;" parent="5w9AlxM-pXS2CwVHZlCb-218" vertex="1">
          <mxGeometry y="138" width="250" height="26" as="geometry" />
        </mxCell>
        <mxCell id="5w9AlxM-pXS2CwVHZlCb-227" value="Delete()" style="text;strokeColor=none;fillColor=none;align=left;verticalAlign=top;spacingLeft=4;spacingRight=4;overflow=hidden;rotatable=0;points=[[0,0.5],[1,0.5]];portConstraint=eastwest;whiteSpace=wrap;html=1;fontSize=19;" parent="5w9AlxM-pXS2CwVHZlCb-218" vertex="1">
          <mxGeometry y="164" width="250" height="26" as="geometry" />
        </mxCell>
        <mxCell id="5w9AlxM-pXS2CwVHZlCb-226" value="Show()" style="text;strokeColor=none;fillColor=none;align=left;verticalAlign=top;spacingLeft=4;spacingRight=4;overflow=hidden;rotatable=0;points=[[0,0.5],[1,0.5]];portConstraint=eastwest;whiteSpace=wrap;html=1;fontSize=19;" parent="5w9AlxM-pXS2CwVHZlCb-218" vertex="1">
          <mxGeometry y="190" width="250" height="26" as="geometry" />
        </mxCell>
        <mxCell id="BmXPt9EanWhrnK-uzXcy-15" style="edgeStyle=orthogonalEdgeStyle;rounded=0;orthogonalLoop=1;jettySize=auto;html=1;endArrow=none;endFill=0;" parent="1" source="5w9AlxM-pXS2CwVHZlCb-228" target="BmXPt9EanWhrnK-uzXcy-4" edge="1">
          <mxGeometry relative="1" as="geometry">
            <Array as="points">
              <mxPoint x="-1297" y="620" />
            </Array>
          </mxGeometry>
        </mxCell>
        <mxCell id="5w9AlxM-pXS2CwVHZlCb-228" value="&lt;span style=&quot;font-size: 19px; font-weight: 400;&quot;&gt;ScholarshipRegistrations&lt;/span&gt;" style="swimlane;fontStyle=1;align=center;verticalAlign=top;childLayout=stackLayout;horizontal=1;startSize=31;horizontalStack=0;resizeParent=1;resizeParentMax=0;resizeLast=0;collapsible=1;marginBottom=0;whiteSpace=wrap;html=1;fontSize=19;" parent="1" vertex="1">
          <mxGeometry x="-1435" y="849" width="275" height="273" as="geometry" />
        </mxCell>
        <mxCell id="5w9AlxM-pXS2CwVHZlCb-229" value="regist_id: int(PK)" style="text;strokeColor=none;fillColor=none;align=left;verticalAlign=top;spacingLeft=4;spacingRight=4;overflow=hidden;rotatable=0;points=[[0,0.5],[1,0.5]];portConstraint=eastwest;whiteSpace=wrap;html=1;fontSize=19;" parent="5w9AlxM-pXS2CwVHZlCb-228" vertex="1">
          <mxGeometry y="31" width="275" height="26" as="geometry" />
        </mxCell>
        <mxCell id="BmXPt9EanWhrnK-uzXcy-16" value="student_id&amp;nbsp;&lt;span style=&quot;font-size: 19px;&quot;&gt;: string (FK)&lt;/span&gt;" style="text;strokeColor=none;fillColor=none;align=left;verticalAlign=top;spacingLeft=4;spacingRight=4;overflow=hidden;rotatable=0;points=[[0,0.5],[1,0.5]];portConstraint=eastwest;whiteSpace=wrap;html=1;fontSize=19;" parent="5w9AlxM-pXS2CwVHZlCb-228" vertex="1">
          <mxGeometry y="57" width="275" height="26" as="geometry" />
        </mxCell>
        <mxCell id="5w9AlxM-pXS2CwVHZlCb-230" value="&lt;span style=&quot;font-size: 19px;&quot;&gt;scholarship_id : int(FK)&lt;/span&gt;" style="text;strokeColor=none;fillColor=none;align=left;verticalAlign=top;spacingLeft=4;spacingRight=4;overflow=hidden;rotatable=0;points=[[0,0.5],[1,0.5]];portConstraint=eastwest;whiteSpace=wrap;html=1;fontSize=19;" parent="5w9AlxM-pXS2CwVHZlCb-228" vertex="1">
          <mxGeometry y="83" width="275" height="26" as="geometry" />
        </mxCell>
        <mxCell id="9R0aWSbxY7jMIysIA1T6-2" value="related_works : string" style="text;strokeColor=none;fillColor=none;align=left;verticalAlign=top;spacingLeft=4;spacingRight=4;overflow=hidden;rotatable=0;points=[[0,0.5],[1,0.5]];portConstraint=eastwest;whiteSpace=wrap;html=1;fontSize=19;" parent="5w9AlxM-pXS2CwVHZlCb-228" vertex="1">
          <mxGeometry y="109" width="275" height="26" as="geometry" />
        </mxCell>
        <mxCell id="BmXPt9EanWhrnK-uzXcy-18" value="student_status : string" style="text;strokeColor=none;fillColor=none;align=left;verticalAlign=top;spacingLeft=4;spacingRight=4;overflow=hidden;rotatable=0;points=[[0,0.5],[1,0.5]];portConstraint=eastwest;whiteSpace=wrap;html=1;fontSize=19;" parent="5w9AlxM-pXS2CwVHZlCb-228" vertex="1">
          <mxGeometry y="135" width="275" height="26" as="geometry" />
        </mxCell>
        <mxCell id="5w9AlxM-pXS2CwVHZlCb-233" value="" style="line;strokeWidth=1;fillColor=none;align=left;verticalAlign=middle;spacingTop=-1;spacingLeft=3;spacingRight=3;rotatable=0;labelPosition=right;points=[];portConstraint=eastwest;strokeColor=inherit;fontSize=19;" parent="5w9AlxM-pXS2CwVHZlCb-228" vertex="1">
          <mxGeometry y="161" width="275" height="8" as="geometry" />
        </mxCell>
        <mxCell id="5w9AlxM-pXS2CwVHZlCb-234" value="Insert()" style="text;strokeColor=none;fillColor=none;align=left;verticalAlign=top;spacingLeft=4;spacingRight=4;overflow=hidden;rotatable=0;points=[[0,0.5],[1,0.5]];portConstraint=eastwest;whiteSpace=wrap;html=1;fontSize=19;" parent="5w9AlxM-pXS2CwVHZlCb-228" vertex="1">
          <mxGeometry y="169" width="275" height="26" as="geometry" />
        </mxCell>
        <mxCell id="5w9AlxM-pXS2CwVHZlCb-235" value="Update()" style="text;strokeColor=none;fillColor=none;align=left;verticalAlign=top;spacingLeft=4;spacingRight=4;overflow=hidden;rotatable=0;points=[[0,0.5],[1,0.5]];portConstraint=eastwest;whiteSpace=wrap;html=1;fontSize=19;" parent="5w9AlxM-pXS2CwVHZlCb-228" vertex="1">
          <mxGeometry y="195" width="275" height="26" as="geometry" />
        </mxCell>
        <mxCell id="5w9AlxM-pXS2CwVHZlCb-237" value="Delete()" style="text;strokeColor=none;fillColor=none;align=left;verticalAlign=top;spacingLeft=4;spacingRight=4;overflow=hidden;rotatable=0;points=[[0,0.5],[1,0.5]];portConstraint=eastwest;whiteSpace=wrap;html=1;fontSize=19;" parent="5w9AlxM-pXS2CwVHZlCb-228" vertex="1">
          <mxGeometry y="221" width="275" height="26" as="geometry" />
        </mxCell>
        <mxCell id="5w9AlxM-pXS2CwVHZlCb-236" value="Show()" style="text;strokeColor=none;fillColor=none;align=left;verticalAlign=top;spacingLeft=4;spacingRight=4;overflow=hidden;rotatable=0;points=[[0,0.5],[1,0.5]];portConstraint=eastwest;whiteSpace=wrap;html=1;fontSize=19;" parent="5w9AlxM-pXS2CwVHZlCb-228" vertex="1">
          <mxGeometry y="247" width="275" height="26" as="geometry" />
        </mxCell>
        <mxCell id="5w9AlxM-pXS2CwVHZlCb-238" value="&lt;span style=&quot;font-size: 19px; font-weight: 400;&quot;&gt;Scholarships&lt;/span&gt;" style="swimlane;fontStyle=1;align=center;verticalAlign=top;childLayout=stackLayout;horizontal=1;startSize=26;horizontalStack=0;resizeParent=1;resizeParentMax=0;resizeLast=0;collapsible=1;marginBottom=0;whiteSpace=wrap;html=1;fontSize=19;" parent="1" vertex="1">
          <mxGeometry x="-1012.5" y="1068" width="255" height="268" as="geometry" />
        </mxCell>
        <mxCell id="5w9AlxM-pXS2CwVHZlCb-239" value="&lt;span style=&quot;font-size: 19px;&quot;&gt;scholarship_id : int (PK)&lt;/span&gt;" style="text;strokeColor=none;fillColor=none;align=left;verticalAlign=top;spacingLeft=4;spacingRight=4;overflow=hidden;rotatable=0;points=[[0,0.5],[1,0.5]];portConstraint=eastwest;whiteSpace=wrap;html=1;fontSize=19;" parent="5w9AlxM-pXS2CwVHZlCb-238" vertex="1">
          <mxGeometry y="26" width="255" height="26" as="geometry" />
        </mxCell>
        <mxCell id="5w9AlxM-pXS2CwVHZlCb-240" value="&lt;span style=&quot;font-size: 19px;&quot;&gt;application_start_date : date&lt;/span&gt;" style="text;strokeColor=none;fillColor=none;align=left;verticalAlign=top;spacingLeft=4;spacingRight=4;overflow=hidden;rotatable=0;points=[[0,0.5],[1,0.5]];portConstraint=eastwest;whiteSpace=wrap;html=1;fontSize=19;" parent="5w9AlxM-pXS2CwVHZlCb-238" vertex="1">
          <mxGeometry y="52" width="255" height="26" as="geometry" />
        </mxCell>
        <mxCell id="5w9AlxM-pXS2CwVHZlCb-241" value="&lt;span style=&quot;font-size: 19px;&quot;&gt;application_end_date : date&lt;/span&gt;" style="text;strokeColor=none;fillColor=none;align=left;verticalAlign=top;spacingLeft=4;spacingRight=4;overflow=hidden;rotatable=0;points=[[0,0.5],[1,0.5]];portConstraint=eastwest;whiteSpace=wrap;html=1;fontSize=19;" parent="5w9AlxM-pXS2CwVHZlCb-238" vertex="1">
          <mxGeometry y="78" width="255" height="26" as="geometry" />
        </mxCell>
        <mxCell id="5w9AlxM-pXS2CwVHZlCb-249" value="&lt;span style=&quot;font-size: 19px;&quot;&gt;academic_year : int&lt;/span&gt;" style="text;strokeColor=none;fillColor=none;align=left;verticalAlign=top;spacingLeft=4;spacingRight=4;overflow=hidden;rotatable=0;points=[[0,0.5],[1,0.5]];portConstraint=eastwest;whiteSpace=wrap;html=1;fontSize=19;" parent="5w9AlxM-pXS2CwVHZlCb-238" vertex="1">
          <mxGeometry y="104" width="255" height="26" as="geometry" />
        </mxCell>
        <mxCell id="5w9AlxM-pXS2CwVHZlCb-242" value="&lt;span style=&quot;font-size: 19px;&quot;&gt;academic_term : int&lt;/span&gt;" style="text;strokeColor=none;fillColor=none;align=left;verticalAlign=top;spacingLeft=4;spacingRight=4;overflow=hidden;rotatable=0;points=[[0,0.5],[1,0.5]];portConstraint=eastwest;whiteSpace=wrap;html=1;fontSize=19;" parent="5w9AlxM-pXS2CwVHZlCb-238" vertex="1">
          <mxGeometry y="130" width="255" height="26" as="geometry" />
        </mxCell>
        <mxCell id="5w9AlxM-pXS2CwVHZlCb-243" value="" style="line;strokeWidth=1;fillColor=none;align=left;verticalAlign=middle;spacingTop=-1;spacingLeft=3;spacingRight=3;rotatable=0;labelPosition=right;points=[];portConstraint=eastwest;strokeColor=inherit;fontSize=19;" parent="5w9AlxM-pXS2CwVHZlCb-238" vertex="1">
          <mxGeometry y="156" width="255" height="8" as="geometry" />
        </mxCell>
        <mxCell id="5w9AlxM-pXS2CwVHZlCb-244" value="Insert&lt;span style=&quot;text-align: center; font-size: 19px;&quot;&gt;Scholarships&lt;/span&gt;()" style="text;strokeColor=none;fillColor=none;align=left;verticalAlign=top;spacingLeft=4;spacingRight=4;overflow=hidden;rotatable=0;points=[[0,0.5],[1,0.5]];portConstraint=eastwest;whiteSpace=wrap;html=1;fontSize=19;" parent="5w9AlxM-pXS2CwVHZlCb-238" vertex="1">
          <mxGeometry y="164" width="255" height="26" as="geometry" />
        </mxCell>
        <mxCell id="5w9AlxM-pXS2CwVHZlCb-245" value="Update&lt;span style=&quot;text-align: center; font-size: 19px;&quot;&gt;Scholarships&lt;/span&gt;()" style="text;strokeColor=none;fillColor=none;align=left;verticalAlign=top;spacingLeft=4;spacingRight=4;overflow=hidden;rotatable=0;points=[[0,0.5],[1,0.5]];portConstraint=eastwest;whiteSpace=wrap;html=1;fontSize=19;" parent="5w9AlxM-pXS2CwVHZlCb-238" vertex="1">
          <mxGeometry y="190" width="255" height="26" as="geometry" />
        </mxCell>
        <mxCell id="5w9AlxM-pXS2CwVHZlCb-246" value="Delete&lt;span style=&quot;text-align: center; font-size: 19px;&quot;&gt;Scholarships&lt;/span&gt;()" style="text;strokeColor=none;fillColor=none;align=left;verticalAlign=top;spacingLeft=4;spacingRight=4;overflow=hidden;rotatable=0;points=[[0,0.5],[1,0.5]];portConstraint=eastwest;whiteSpace=wrap;html=1;fontSize=19;" parent="5w9AlxM-pXS2CwVHZlCb-238" vertex="1">
          <mxGeometry y="216" width="255" height="26" as="geometry" />
        </mxCell>
        <mxCell id="5w9AlxM-pXS2CwVHZlCb-247" value="Show&lt;span style=&quot;text-align: center; font-size: 19px;&quot;&gt;Scholarships&lt;/span&gt;()" style="text;strokeColor=none;fillColor=none;align=left;verticalAlign=top;spacingLeft=4;spacingRight=4;overflow=hidden;rotatable=0;points=[[0,0.5],[1,0.5]];portConstraint=eastwest;whiteSpace=wrap;html=1;fontSize=19;" parent="5w9AlxM-pXS2CwVHZlCb-238" vertex="1">
          <mxGeometry y="242" width="255" height="26" as="geometry" />
        </mxCell>
        <mxCell id="5w9AlxM-pXS2CwVHZlCb-250" value="&lt;span style=&quot;font-size: 19px; font-weight: 400; text-wrap: nowrap;&quot;&gt;Organization&lt;/span&gt;" style="swimlane;fontStyle=1;align=center;verticalAlign=top;childLayout=stackLayout;horizontal=1;startSize=26;horizontalStack=0;resizeParent=1;resizeParentMax=0;resizeLast=0;collapsible=1;marginBottom=0;whiteSpace=wrap;html=1;fontSize=19;" parent="1" vertex="1">
          <mxGeometry x="-610" y="1091" width="255" height="216" as="geometry" />
        </mxCell>
        <mxCell id="5w9AlxM-pXS2CwVHZlCb-251" value="&lt;span style=&quot;font-size: 19px;&quot;&gt;Organization_id : int (PK)&lt;/span&gt;" style="text;strokeColor=none;fillColor=none;align=left;verticalAlign=top;spacingLeft=4;spacingRight=4;overflow=hidden;rotatable=0;points=[[0,0.5],[1,0.5]];portConstraint=eastwest;whiteSpace=wrap;html=1;fontSize=19;" parent="5w9AlxM-pXS2CwVHZlCb-250" vertex="1">
          <mxGeometry y="26" width="255" height="26" as="geometry" />
        </mxCell>
        <mxCell id="5w9AlxM-pXS2CwVHZlCb-252" value="&lt;span style=&quot;font-size: 19px;&quot;&gt;Organization_name : string&lt;/span&gt;" style="text;strokeColor=none;fillColor=none;align=left;verticalAlign=top;spacingLeft=4;spacingRight=4;overflow=hidden;rotatable=0;points=[[0,0.5],[1,0.5]];portConstraint=eastwest;whiteSpace=wrap;html=1;fontSize=19;" parent="5w9AlxM-pXS2CwVHZlCb-250" vertex="1">
          <mxGeometry y="52" width="255" height="26" as="geometry" />
        </mxCell>
        <mxCell id="5w9AlxM-pXS2CwVHZlCb-254" value="&lt;span style=&quot;font-size: 19px;&quot;&gt;contactPhone :string&lt;/span&gt;" style="text;strokeColor=none;fillColor=none;align=left;verticalAlign=top;spacingLeft=4;spacingRight=4;overflow=hidden;rotatable=0;points=[[0,0.5],[1,0.5]];portConstraint=eastwest;whiteSpace=wrap;html=1;fontSize=19;" parent="5w9AlxM-pXS2CwVHZlCb-250" vertex="1">
          <mxGeometry y="78" width="255" height="26" as="geometry" />
        </mxCell>
        <mxCell id="5w9AlxM-pXS2CwVHZlCb-257" value="" style="line;strokeWidth=1;fillColor=none;align=left;verticalAlign=middle;spacingTop=-1;spacingLeft=3;spacingRight=3;rotatable=0;labelPosition=right;points=[];portConstraint=eastwest;strokeColor=inherit;fontSize=19;" parent="5w9AlxM-pXS2CwVHZlCb-250" vertex="1">
          <mxGeometry y="104" width="255" height="8" as="geometry" />
        </mxCell>
        <mxCell id="5w9AlxM-pXS2CwVHZlCb-258" value="Insert&lt;span style=&quot;text-align: center; text-wrap: nowrap; font-size: 19px;&quot;&gt;Organization&lt;/span&gt;()" style="text;strokeColor=none;fillColor=none;align=left;verticalAlign=top;spacingLeft=4;spacingRight=4;overflow=hidden;rotatable=0;points=[[0,0.5],[1,0.5]];portConstraint=eastwest;whiteSpace=wrap;html=1;fontSize=19;" parent="5w9AlxM-pXS2CwVHZlCb-250" vertex="1">
          <mxGeometry y="112" width="255" height="26" as="geometry" />
        </mxCell>
        <mxCell id="5w9AlxM-pXS2CwVHZlCb-259" value="Update&lt;span style=&quot;text-align: center; text-wrap: nowrap; font-size: 19px;&quot;&gt;Organization&lt;/span&gt;()" style="text;strokeColor=none;fillColor=none;align=left;verticalAlign=top;spacingLeft=4;spacingRight=4;overflow=hidden;rotatable=0;points=[[0,0.5],[1,0.5]];portConstraint=eastwest;whiteSpace=wrap;html=1;fontSize=19;" parent="5w9AlxM-pXS2CwVHZlCb-250" vertex="1">
          <mxGeometry y="138" width="255" height="26" as="geometry" />
        </mxCell>
        <mxCell id="5w9AlxM-pXS2CwVHZlCb-260" value="Delete&lt;span style=&quot;text-align: center; text-wrap: nowrap; font-size: 19px;&quot;&gt;Organization&lt;/span&gt;()" style="text;strokeColor=none;fillColor=none;align=left;verticalAlign=top;spacingLeft=4;spacingRight=4;overflow=hidden;rotatable=0;points=[[0,0.5],[1,0.5]];portConstraint=eastwest;whiteSpace=wrap;html=1;fontSize=19;" parent="5w9AlxM-pXS2CwVHZlCb-250" vertex="1">
          <mxGeometry y="164" width="255" height="26" as="geometry" />
        </mxCell>
        <mxCell id="5w9AlxM-pXS2CwVHZlCb-261" value="Show&lt;span style=&quot;text-align: center; text-wrap: nowrap; font-size: 19px;&quot;&gt;Organization&lt;/span&gt;()" style="text;strokeColor=none;fillColor=none;align=left;verticalAlign=top;spacingLeft=4;spacingRight=4;overflow=hidden;rotatable=0;points=[[0,0.5],[1,0.5]];portConstraint=eastwest;whiteSpace=wrap;html=1;fontSize=19;" parent="5w9AlxM-pXS2CwVHZlCb-250" vertex="1">
          <mxGeometry y="190" width="255" height="26" as="geometry" />
        </mxCell>
        <mxCell id="5w9AlxM-pXS2CwVHZlCb-263" value="&lt;span style=&quot;font-size: 19px; font-weight: 400;&quot;&gt;Skills&lt;/span&gt;" style="swimlane;fontStyle=1;align=center;verticalAlign=top;childLayout=stackLayout;horizontal=1;startSize=26;horizontalStack=0;resizeParent=1;resizeParentMax=0;resizeLast=0;collapsible=1;marginBottom=0;whiteSpace=wrap;html=1;fontSize=19;" parent="1" vertex="1">
          <mxGeometry x="-1810" y="1620" width="255" height="190" as="geometry" />
        </mxCell>
        <mxCell id="5w9AlxM-pXS2CwVHZlCb-264" value="&lt;span style=&quot;font-size: 19px;&quot;&gt;skill_id :&amp;nbsp;&lt;/span&gt;&lt;span style=&quot;font-size: 19px;&quot;&gt;int (PK)&lt;/span&gt;" style="text;strokeColor=none;fillColor=none;align=left;verticalAlign=top;spacingLeft=4;spacingRight=4;overflow=hidden;rotatable=0;points=[[0,0.5],[1,0.5]];portConstraint=eastwest;whiteSpace=wrap;html=1;fontSize=19;" parent="5w9AlxM-pXS2CwVHZlCb-263" vertex="1">
          <mxGeometry y="26" width="255" height="26" as="geometry" />
        </mxCell>
        <mxCell id="5w9AlxM-pXS2CwVHZlCb-265" value="&lt;span style=&quot;font-size: 19px;&quot;&gt;skill_name :string&lt;/span&gt;" style="text;strokeColor=none;fillColor=none;align=left;verticalAlign=top;spacingLeft=4;spacingRight=4;overflow=hidden;rotatable=0;points=[[0,0.5],[1,0.5]];portConstraint=eastwest;whiteSpace=wrap;html=1;fontSize=19;" parent="5w9AlxM-pXS2CwVHZlCb-263" vertex="1">
          <mxGeometry y="52" width="255" height="26" as="geometry" />
        </mxCell>
        <mxCell id="5w9AlxM-pXS2CwVHZlCb-268" value="" style="line;strokeWidth=1;fillColor=none;align=left;verticalAlign=middle;spacingTop=-1;spacingLeft=3;spacingRight=3;rotatable=0;labelPosition=right;points=[];portConstraint=eastwest;strokeColor=inherit;fontSize=19;" parent="5w9AlxM-pXS2CwVHZlCb-263" vertex="1">
          <mxGeometry y="78" width="255" height="8" as="geometry" />
        </mxCell>
        <mxCell id="5w9AlxM-pXS2CwVHZlCb-269" value="Insert&lt;span style=&quot;text-align: center; font-size: 19px;&quot;&gt;Skills&lt;/span&gt;()" style="text;strokeColor=none;fillColor=none;align=left;verticalAlign=top;spacingLeft=4;spacingRight=4;overflow=hidden;rotatable=0;points=[[0,0.5],[1,0.5]];portConstraint=eastwest;whiteSpace=wrap;html=1;fontSize=19;" parent="5w9AlxM-pXS2CwVHZlCb-263" vertex="1">
          <mxGeometry y="86" width="255" height="26" as="geometry" />
        </mxCell>
        <mxCell id="5w9AlxM-pXS2CwVHZlCb-270" value="Update&lt;span style=&quot;text-align: center; font-size: 19px;&quot;&gt;Skills&lt;/span&gt;()" style="text;strokeColor=none;fillColor=none;align=left;verticalAlign=top;spacingLeft=4;spacingRight=4;overflow=hidden;rotatable=0;points=[[0,0.5],[1,0.5]];portConstraint=eastwest;whiteSpace=wrap;html=1;fontSize=19;" parent="5w9AlxM-pXS2CwVHZlCb-263" vertex="1">
          <mxGeometry y="112" width="255" height="26" as="geometry" />
        </mxCell>
        <mxCell id="5w9AlxM-pXS2CwVHZlCb-271" value="Delete&lt;span style=&quot;text-align: center; font-size: 19px;&quot;&gt;Skills&lt;/span&gt;()" style="text;strokeColor=none;fillColor=none;align=left;verticalAlign=top;spacingLeft=4;spacingRight=4;overflow=hidden;rotatable=0;points=[[0,0.5],[1,0.5]];portConstraint=eastwest;whiteSpace=wrap;html=1;fontSize=19;" parent="5w9AlxM-pXS2CwVHZlCb-263" vertex="1">
          <mxGeometry y="138" width="255" height="26" as="geometry" />
        </mxCell>
        <mxCell id="5w9AlxM-pXS2CwVHZlCb-272" value="Show&lt;span style=&quot;text-align: center; font-size: 19px;&quot;&gt;Skills&lt;/span&gt;()" style="text;strokeColor=none;fillColor=none;align=left;verticalAlign=top;spacingLeft=4;spacingRight=4;overflow=hidden;rotatable=0;points=[[0,0.5],[1,0.5]];portConstraint=eastwest;whiteSpace=wrap;html=1;fontSize=19;" parent="5w9AlxM-pXS2CwVHZlCb-263" vertex="1">
          <mxGeometry y="164" width="255" height="26" as="geometry" />
        </mxCell>
        <mxCell id="5w9AlxM-pXS2CwVHZlCb-273" value="&lt;span style=&quot;font-size: 19px; font-weight: 400;&quot;&gt;ScholarshipRequirement&lt;/span&gt;" style="swimlane;fontStyle=1;align=center;verticalAlign=top;childLayout=stackLayout;horizontal=1;startSize=26;horizontalStack=0;resizeParent=1;resizeParentMax=0;resizeLast=0;collapsible=1;marginBottom=0;whiteSpace=wrap;html=1;fontSize=19;" parent="1" vertex="1">
          <mxGeometry x="-1340" y="1610" width="320" height="216" as="geometry" />
        </mxCell>
        <mxCell id="5w9AlxM-pXS2CwVHZlCb-274" value="Scholarship_organ_id&amp;nbsp;&lt;span style=&quot;font-size: 18px;&quot;&gt;: int (PK.FK)&lt;/span&gt;" style="text;strokeColor=none;fillColor=none;align=left;verticalAlign=top;spacingLeft=4;spacingRight=4;overflow=hidden;rotatable=0;points=[[0,0.5],[1,0.5]];portConstraint=eastwest;whiteSpace=wrap;html=1;fontSize=18;" parent="5w9AlxM-pXS2CwVHZlCb-273" vertex="1">
          <mxGeometry y="26" width="320" height="26" as="geometry" />
        </mxCell>
        <mxCell id="5w9AlxM-pXS2CwVHZlCb-275" value="&lt;span style=&quot;font-size: 19px;&quot;&gt;skill_id : int (PK,FK)&lt;/span&gt;" style="text;strokeColor=none;fillColor=none;align=left;verticalAlign=top;spacingLeft=4;spacingRight=4;overflow=hidden;rotatable=0;points=[[0,0.5],[1,0.5]];portConstraint=eastwest;whiteSpace=wrap;html=1;fontSize=19;" parent="5w9AlxM-pXS2CwVHZlCb-273" vertex="1">
          <mxGeometry y="52" width="320" height="26" as="geometry" />
        </mxCell>
        <mxCell id="5w9AlxM-pXS2CwVHZlCb-276" value="&lt;span style=&quot;font-size: 19px;&quot;&gt;required_level : int&lt;/span&gt;" style="text;strokeColor=none;fillColor=none;align=left;verticalAlign=top;spacingLeft=4;spacingRight=4;overflow=hidden;rotatable=0;points=[[0,0.5],[1,0.5]];portConstraint=eastwest;whiteSpace=wrap;html=1;fontSize=19;" parent="5w9AlxM-pXS2CwVHZlCb-273" vertex="1">
          <mxGeometry y="78" width="320" height="26" as="geometry" />
        </mxCell>
        <mxCell id="5w9AlxM-pXS2CwVHZlCb-277" value="" style="line;strokeWidth=1;fillColor=none;align=left;verticalAlign=middle;spacingTop=-1;spacingLeft=3;spacingRight=3;rotatable=0;labelPosition=right;points=[];portConstraint=eastwest;strokeColor=inherit;fontSize=19;" parent="5w9AlxM-pXS2CwVHZlCb-273" vertex="1">
          <mxGeometry y="104" width="320" height="8" as="geometry" />
        </mxCell>
        <mxCell id="5w9AlxM-pXS2CwVHZlCb-278" value="Insert()" style="text;strokeColor=none;fillColor=none;align=left;verticalAlign=top;spacingLeft=4;spacingRight=4;overflow=hidden;rotatable=0;points=[[0,0.5],[1,0.5]];portConstraint=eastwest;whiteSpace=wrap;html=1;fontSize=19;" parent="5w9AlxM-pXS2CwVHZlCb-273" vertex="1">
          <mxGeometry y="112" width="320" height="26" as="geometry" />
        </mxCell>
        <mxCell id="5w9AlxM-pXS2CwVHZlCb-279" value="Update()" style="text;strokeColor=none;fillColor=none;align=left;verticalAlign=top;spacingLeft=4;spacingRight=4;overflow=hidden;rotatable=0;points=[[0,0.5],[1,0.5]];portConstraint=eastwest;whiteSpace=wrap;html=1;fontSize=19;" parent="5w9AlxM-pXS2CwVHZlCb-273" vertex="1">
          <mxGeometry y="138" width="320" height="26" as="geometry" />
        </mxCell>
        <mxCell id="5w9AlxM-pXS2CwVHZlCb-280" value="Delete()" style="text;strokeColor=none;fillColor=none;align=left;verticalAlign=top;spacingLeft=4;spacingRight=4;overflow=hidden;rotatable=0;points=[[0,0.5],[1,0.5]];portConstraint=eastwest;whiteSpace=wrap;html=1;fontSize=19;" parent="5w9AlxM-pXS2CwVHZlCb-273" vertex="1">
          <mxGeometry y="164" width="320" height="26" as="geometry" />
        </mxCell>
        <mxCell id="5w9AlxM-pXS2CwVHZlCb-281" value="Show()" style="text;strokeColor=none;fillColor=none;align=left;verticalAlign=top;spacingLeft=4;spacingRight=4;overflow=hidden;rotatable=0;points=[[0,0.5],[1,0.5]];portConstraint=eastwest;whiteSpace=wrap;html=1;fontSize=19;" parent="5w9AlxM-pXS2CwVHZlCb-273" vertex="1">
          <mxGeometry y="190" width="320" height="26" as="geometry" />
        </mxCell>
        <mxCell id="5w9AlxM-pXS2CwVHZlCb-282" value="&lt;span style=&quot;font-size: 19px; font-weight: 400;&quot;&gt;ScholarshipOrganization&lt;/span&gt;" style="swimlane;fontStyle=1;align=center;verticalAlign=top;childLayout=stackLayout;horizontal=1;startSize=30;horizontalStack=0;resizeParent=1;resizeParentMax=0;resizeLast=0;collapsible=1;marginBottom=0;whiteSpace=wrap;html=1;fontSize=19;" parent="1" vertex="1">
          <mxGeometry x="-850" y="1610" width="275" height="298" as="geometry" />
        </mxCell>
        <mxCell id="5w9AlxM-pXS2CwVHZlCb-283" value="&lt;font style=&quot;font-size: 17px;&quot;&gt;Scholarship_organ_id : int (PK)&lt;/font&gt;" style="text;strokeColor=none;fillColor=none;align=left;verticalAlign=top;spacingLeft=4;spacingRight=4;overflow=hidden;rotatable=0;points=[[0,0.5],[1,0.5]];portConstraint=eastwest;whiteSpace=wrap;html=1;fontSize=19;" parent="5w9AlxM-pXS2CwVHZlCb-282" vertex="1">
          <mxGeometry y="30" width="275" height="26" as="geometry" />
        </mxCell>
        <mxCell id="5w9AlxM-pXS2CwVHZlCb-284" value="&lt;span style=&quot;font-size: 19px;&quot;&gt;scholarship_id :&amp;nbsp;&lt;/span&gt;&lt;span style=&quot;font-size: 19px;&quot;&gt;int (FK)&lt;/span&gt;" style="text;strokeColor=none;fillColor=none;align=left;verticalAlign=top;spacingLeft=4;spacingRight=4;overflow=hidden;rotatable=0;points=[[0,0.5],[1,0.5]];portConstraint=eastwest;whiteSpace=wrap;html=1;fontSize=19;" parent="5w9AlxM-pXS2CwVHZlCb-282" vertex="1">
          <mxGeometry y="56" width="275" height="26" as="geometry" />
        </mxCell>
        <mxCell id="5w9AlxM-pXS2CwVHZlCb-292" value="&lt;span style=&quot;font-size: 19px;&quot;&gt;organization_id :&amp;nbsp;&lt;/span&gt;&lt;span style=&quot;font-size: 19px;&quot;&gt;int (FK)&lt;/span&gt;" style="text;strokeColor=none;fillColor=none;align=left;verticalAlign=top;spacingLeft=4;spacingRight=4;overflow=hidden;rotatable=0;points=[[0,0.5],[1,0.5]];portConstraint=eastwest;whiteSpace=wrap;html=1;fontSize=19;" parent="5w9AlxM-pXS2CwVHZlCb-282" vertex="1">
          <mxGeometry y="82" width="275" height="26" as="geometry" />
        </mxCell>
        <mxCell id="5w9AlxM-pXS2CwVHZlCb-291" value="&lt;span style=&quot;font-size: 19px;&quot;&gt;amount : int&lt;/span&gt;" style="text;strokeColor=none;fillColor=none;align=left;verticalAlign=top;spacingLeft=4;spacingRight=4;overflow=hidden;rotatable=0;points=[[0,0.5],[1,0.5]];portConstraint=eastwest;whiteSpace=wrap;html=1;fontSize=19;" parent="5w9AlxM-pXS2CwVHZlCb-282" vertex="1">
          <mxGeometry y="108" width="275" height="26" as="geometry" />
        </mxCell>
        <mxCell id="5w9AlxM-pXS2CwVHZlCb-285" value="&lt;span style=&quot;background-color: initial;&quot;&gt;workTye: string&lt;/span&gt;" style="text;strokeColor=none;fillColor=none;align=left;verticalAlign=top;spacingLeft=4;spacingRight=4;overflow=hidden;rotatable=0;points=[[0,0.5],[1,0.5]];portConstraint=eastwest;whiteSpace=wrap;html=1;fontSize=19;" parent="5w9AlxM-pXS2CwVHZlCb-282" vertex="1">
          <mxGeometry y="134" width="275" height="26" as="geometry" />
        </mxCell>
        <mxCell id="9R0aWSbxY7jMIysIA1T6-10" value="workTime&lt;span style=&quot;font-size: 19px;&quot;&gt;&amp;nbsp;:&amp;nbsp;&lt;/span&gt;Array" style="text;strokeColor=none;fillColor=none;align=left;verticalAlign=top;spacingLeft=4;spacingRight=4;overflow=hidden;rotatable=0;points=[[0,0.5],[1,0.5]];portConstraint=eastwest;whiteSpace=wrap;html=1;fontSize=19;" parent="5w9AlxM-pXS2CwVHZlCb-282" vertex="1">
          <mxGeometry y="160" width="275" height="26" as="geometry" />
        </mxCell>
        <mxCell id="5w9AlxM-pXS2CwVHZlCb-286" value="" style="line;strokeWidth=1;fillColor=none;align=left;verticalAlign=middle;spacingTop=-1;spacingLeft=3;spacingRight=3;rotatable=0;labelPosition=right;points=[];portConstraint=eastwest;strokeColor=inherit;fontSize=19;" parent="5w9AlxM-pXS2CwVHZlCb-282" vertex="1">
          <mxGeometry y="186" width="275" height="8" as="geometry" />
        </mxCell>
        <mxCell id="5w9AlxM-pXS2CwVHZlCb-287" value="Insert()" style="text;strokeColor=none;fillColor=none;align=left;verticalAlign=top;spacingLeft=4;spacingRight=4;overflow=hidden;rotatable=0;points=[[0,0.5],[1,0.5]];portConstraint=eastwest;whiteSpace=wrap;html=1;fontSize=19;" parent="5w9AlxM-pXS2CwVHZlCb-282" vertex="1">
          <mxGeometry y="194" width="275" height="26" as="geometry" />
        </mxCell>
        <mxCell id="5w9AlxM-pXS2CwVHZlCb-288" value="Update()" style="text;strokeColor=none;fillColor=none;align=left;verticalAlign=top;spacingLeft=4;spacingRight=4;overflow=hidden;rotatable=0;points=[[0,0.5],[1,0.5]];portConstraint=eastwest;whiteSpace=wrap;html=1;fontSize=19;" parent="5w9AlxM-pXS2CwVHZlCb-282" vertex="1">
          <mxGeometry y="220" width="275" height="26" as="geometry" />
        </mxCell>
        <mxCell id="5w9AlxM-pXS2CwVHZlCb-289" value="Delete()" style="text;strokeColor=none;fillColor=none;align=left;verticalAlign=top;spacingLeft=4;spacingRight=4;overflow=hidden;rotatable=0;points=[[0,0.5],[1,0.5]];portConstraint=eastwest;whiteSpace=wrap;html=1;fontSize=19;" parent="5w9AlxM-pXS2CwVHZlCb-282" vertex="1">
          <mxGeometry y="246" width="275" height="26" as="geometry" />
        </mxCell>
        <mxCell id="5w9AlxM-pXS2CwVHZlCb-290" value="Show()" style="text;strokeColor=none;fillColor=none;align=left;verticalAlign=top;spacingLeft=4;spacingRight=4;overflow=hidden;rotatable=0;points=[[0,0.5],[1,0.5]];portConstraint=eastwest;whiteSpace=wrap;html=1;fontSize=19;" parent="5w9AlxM-pXS2CwVHZlCb-282" vertex="1">
          <mxGeometry y="272" width="275" height="26" as="geometry" />
        </mxCell>
        <mxCell id="5w9AlxM-pXS2CwVHZlCb-293" style="edgeStyle=orthogonalEdgeStyle;rounded=0;orthogonalLoop=1;jettySize=auto;html=1;exitX=0;exitY=0.5;exitDx=0;exitDy=0;entryX=1;entryY=0.5;entryDx=0;entryDy=0;endArrow=none;endFill=0;fontSize=19;" parent="1" source="5w9AlxM-pXS2CwVHZlCb-284" target="5w9AlxM-pXS2CwVHZlCb-275" edge="1">
          <mxGeometry relative="1" as="geometry" />
        </mxCell>
        <mxCell id="5w9AlxM-pXS2CwVHZlCb-294" style="edgeStyle=orthogonalEdgeStyle;rounded=0;orthogonalLoop=1;jettySize=auto;html=1;exitX=1;exitY=0.5;exitDx=0;exitDy=0;endArrow=none;endFill=0;entryX=0;entryY=0.5;entryDx=0;entryDy=0;fontSize=19;" parent="1" source="5w9AlxM-pXS2CwVHZlCb-234" target="5w9AlxM-pXS2CwVHZlCb-249" edge="1">
          <mxGeometry relative="1" as="geometry">
            <Array as="points">
              <mxPoint x="-1110" y="1079" />
              <mxPoint x="-1110" y="1211" />
            </Array>
          </mxGeometry>
        </mxCell>
        <mxCell id="5w9AlxM-pXS2CwVHZlCb-295" value="&lt;span style=&quot;font-size: 19px; font-weight: 400;&quot;&gt;Matching&lt;/span&gt;" style="swimlane;fontStyle=1;align=center;verticalAlign=top;childLayout=stackLayout;horizontal=1;startSize=26;horizontalStack=0;resizeParent=1;resizeParentMax=0;resizeLast=0;collapsible=1;marginBottom=0;whiteSpace=wrap;html=1;fontSize=19;" parent="1" vertex="1">
          <mxGeometry x="-1415" y="1230" width="255" height="200" as="geometry" />
        </mxCell>
        <mxCell id="5w9AlxM-pXS2CwVHZlCb-296" value="&lt;span style=&quot;font-size: 19px;&quot;&gt;matching_id : int (PK)&lt;/span&gt;" style="text;strokeColor=none;fillColor=none;align=left;verticalAlign=top;spacingLeft=4;spacingRight=4;overflow=hidden;rotatable=0;points=[[0,0.5],[1,0.5]];portConstraint=eastwest;whiteSpace=wrap;html=1;fontSize=19;" parent="5w9AlxM-pXS2CwVHZlCb-295" vertex="1">
          <mxGeometry y="26" width="255" height="26" as="geometry" />
        </mxCell>
        <mxCell id="5w9AlxM-pXS2CwVHZlCb-297" value="student_id&amp;nbsp;&lt;span style=&quot;font-size: 19px;&quot;&gt;: string (FK)&lt;/span&gt;" style="text;strokeColor=none;fillColor=none;align=left;verticalAlign=top;spacingLeft=4;spacingRight=4;overflow=hidden;rotatable=0;points=[[0,0.5],[1,0.5]];portConstraint=eastwest;whiteSpace=wrap;html=1;fontSize=19;" parent="5w9AlxM-pXS2CwVHZlCb-295" vertex="1">
          <mxGeometry y="52" width="255" height="26" as="geometry" />
        </mxCell>
        <mxCell id="5w9AlxM-pXS2CwVHZlCb-305" value="&lt;span style=&quot;font-size: 19px;&quot;&gt;scholarship_id : int (FK)&lt;/span&gt;" style="text;strokeColor=none;fillColor=none;align=left;verticalAlign=top;spacingLeft=4;spacingRight=4;overflow=hidden;rotatable=0;points=[[0,0.5],[1,0.5]];portConstraint=eastwest;whiteSpace=wrap;html=1;fontSize=19;" parent="5w9AlxM-pXS2CwVHZlCb-295" vertex="1">
          <mxGeometry y="78" width="255" height="26" as="geometry" />
        </mxCell>
        <mxCell id="5w9AlxM-pXS2CwVHZlCb-304" value="&lt;span style=&quot;font-size: 19px;&quot;&gt;matchScore : float&lt;/span&gt;" style="text;strokeColor=none;fillColor=none;align=left;verticalAlign=top;spacingLeft=4;spacingRight=4;overflow=hidden;rotatable=0;points=[[0,0.5],[1,0.5]];portConstraint=eastwest;whiteSpace=wrap;html=1;fontSize=19;" parent="5w9AlxM-pXS2CwVHZlCb-295" vertex="1">
          <mxGeometry y="104" width="255" height="26" as="geometry" />
        </mxCell>
        <mxCell id="5w9AlxM-pXS2CwVHZlCb-298" value="&lt;span style=&quot;font-size: 19px;&quot;&gt;matchDate : date&lt;/span&gt;" style="text;strokeColor=none;fillColor=none;align=left;verticalAlign=top;spacingLeft=4;spacingRight=4;overflow=hidden;rotatable=0;points=[[0,0.5],[1,0.5]];portConstraint=eastwest;whiteSpace=wrap;html=1;fontSize=19;" parent="5w9AlxM-pXS2CwVHZlCb-295" vertex="1">
          <mxGeometry y="130" width="255" height="26" as="geometry" />
        </mxCell>
        <mxCell id="5w9AlxM-pXS2CwVHZlCb-299" value="" style="line;strokeWidth=1;fillColor=none;align=left;verticalAlign=middle;spacingTop=-1;spacingLeft=3;spacingRight=3;rotatable=0;labelPosition=right;points=[];portConstraint=eastwest;strokeColor=inherit;fontSize=19;" parent="5w9AlxM-pXS2CwVHZlCb-295" vertex="1">
          <mxGeometry y="156" width="255" height="8" as="geometry" />
        </mxCell>
        <mxCell id="5w9AlxM-pXS2CwVHZlCb-303" value="Show&lt;span style=&quot;text-align: center; font-size: 19px;&quot;&gt;Matching&lt;/span&gt;()" style="text;strokeColor=none;fillColor=none;align=left;verticalAlign=top;spacingLeft=4;spacingRight=4;overflow=hidden;rotatable=0;points=[[0,0.5],[1,0.5]];portConstraint=eastwest;whiteSpace=wrap;html=1;fontSize=19;" parent="5w9AlxM-pXS2CwVHZlCb-295" vertex="1">
          <mxGeometry y="164" width="255" height="36" as="geometry" />
        </mxCell>
        <mxCell id="5w9AlxM-pXS2CwVHZlCb-306" value="&lt;span style=&quot;font-weight: 400; font-size: 19px;&quot;&gt;student&lt;/span&gt;" style="swimlane;fontStyle=1;align=center;verticalAlign=top;childLayout=stackLayout;horizontal=1;startSize=26;horizontalStack=0;resizeParent=1;resizeParentMax=0;resizeLast=0;collapsible=1;marginBottom=0;whiteSpace=wrap;html=1;fontSize=19;" parent="1" vertex="1">
          <mxGeometry x="-1845" y="1062" width="255" height="412" as="geometry" />
        </mxCell>
        <mxCell id="5w9AlxM-pXS2CwVHZlCb-307" value="user_id:string(FK)" style="text;strokeColor=none;fillColor=none;align=left;verticalAlign=top;spacingLeft=4;spacingRight=4;overflow=hidden;rotatable=0;points=[[0,0.5],[1,0.5]];portConstraint=eastwest;whiteSpace=wrap;html=1;fontSize=19;" parent="5w9AlxM-pXS2CwVHZlCb-306" vertex="1">
          <mxGeometry y="26" width="255" height="26" as="geometry" />
        </mxCell>
        <mxCell id="5w9AlxM-pXS2CwVHZlCb-308" value="student_id : string (PK)" style="text;strokeColor=none;fillColor=none;align=left;verticalAlign=top;spacingLeft=4;spacingRight=4;overflow=hidden;rotatable=0;points=[[0,0.5],[1,0.5]];portConstraint=eastwest;whiteSpace=wrap;html=1;fontSize=19;" parent="5w9AlxM-pXS2CwVHZlCb-306" vertex="1">
          <mxGeometry y="52" width="255" height="26" as="geometry" />
        </mxCell>
        <mxCell id="5w9AlxM-pXS2CwVHZlCb-317" value="student_fristname : string" style="text;strokeColor=none;fillColor=none;align=left;verticalAlign=top;spacingLeft=4;spacingRight=4;overflow=hidden;rotatable=0;points=[[0,0.5],[1,0.5]];portConstraint=eastwest;whiteSpace=wrap;html=1;fontSize=19;" parent="5w9AlxM-pXS2CwVHZlCb-306" vertex="1">
          <mxGeometry y="78" width="255" height="26" as="geometry" />
        </mxCell>
        <mxCell id="5w9AlxM-pXS2CwVHZlCb-318" value="student_lastname :string" style="text;strokeColor=none;fillColor=none;align=left;verticalAlign=top;spacingLeft=4;spacingRight=4;overflow=hidden;rotatable=0;points=[[0,0.5],[1,0.5]];portConstraint=eastwest;whiteSpace=wrap;html=1;fontSize=19;" parent="5w9AlxM-pXS2CwVHZlCb-306" vertex="1">
          <mxGeometry y="104" width="255" height="26" as="geometry" />
        </mxCell>
        <mxCell id="5w9AlxM-pXS2CwVHZlCb-316" value="student_faculty : string" style="text;strokeColor=none;fillColor=none;align=left;verticalAlign=top;spacingLeft=4;spacingRight=4;overflow=hidden;rotatable=0;points=[[0,0.5],[1,0.5]];portConstraint=eastwest;whiteSpace=wrap;html=1;fontSize=19;" parent="5w9AlxM-pXS2CwVHZlCb-306" vertex="1">
          <mxGeometry y="130" width="255" height="26" as="geometry" />
        </mxCell>
        <mxCell id="5w9AlxM-pXS2CwVHZlCb-315" value="student_field : string" style="text;strokeColor=none;fillColor=none;align=left;verticalAlign=top;spacingLeft=4;spacingRight=4;overflow=hidden;rotatable=0;points=[[0,0.5],[1,0.5]];portConstraint=eastwest;whiteSpace=wrap;html=1;fontSize=19;" parent="5w9AlxM-pXS2CwVHZlCb-306" vertex="1">
          <mxGeometry y="156" width="255" height="26" as="geometry" />
        </mxCell>
        <mxCell id="5w9AlxM-pXS2CwVHZlCb-321" value="student_curriculum : string" style="text;strokeColor=none;fillColor=none;align=left;verticalAlign=top;spacingLeft=4;spacingRight=4;overflow=hidden;rotatable=0;points=[[0,0.5],[1,0.5]];portConstraint=eastwest;whiteSpace=wrap;html=1;fontSize=19;" parent="5w9AlxM-pXS2CwVHZlCb-306" vertex="1">
          <mxGeometry y="182" width="255" height="26" as="geometry" />
        </mxCell>
        <mxCell id="5w9AlxM-pXS2CwVHZlCb-320" value="student_year : int" style="text;strokeColor=none;fillColor=none;align=left;verticalAlign=top;spacingLeft=4;spacingRight=4;overflow=hidden;rotatable=0;points=[[0,0.5],[1,0.5]];portConstraint=eastwest;whiteSpace=wrap;html=1;fontSize=19;" parent="5w9AlxM-pXS2CwVHZlCb-306" vertex="1">
          <mxGeometry y="208" width="255" height="26" as="geometry" />
        </mxCell>
        <mxCell id="5w9AlxM-pXS2CwVHZlCb-171" value="student_gpa : float" style="text;html=1;align=left;verticalAlign=middle;resizable=0;points=[];autosize=1;strokeColor=none;fillColor=none;fontSize=19;fontStyle=0" parent="5w9AlxM-pXS2CwVHZlCb-306" vertex="1">
          <mxGeometry y="234" width="255" height="40" as="geometry" />
        </mxCell>
        <mxCell id="5w9AlxM-pXS2CwVHZlCb-309" value="student_phone : string" style="text;strokeColor=none;fillColor=none;align=left;verticalAlign=top;spacingLeft=4;spacingRight=4;overflow=hidden;rotatable=0;points=[[0,0.5],[1,0.5]];portConstraint=eastwest;whiteSpace=wrap;html=1;fontSize=19;" parent="5w9AlxM-pXS2CwVHZlCb-306" vertex="1">
          <mxGeometry y="274" width="255" height="26" as="geometry" />
        </mxCell>
        <mxCell id="5w9AlxM-pXS2CwVHZlCb-310" value="" style="line;strokeWidth=1;fillColor=none;align=left;verticalAlign=middle;spacingTop=-1;spacingLeft=3;spacingRight=3;rotatable=0;labelPosition=right;points=[];portConstraint=eastwest;strokeColor=inherit;fontSize=19;" parent="5w9AlxM-pXS2CwVHZlCb-306" vertex="1">
          <mxGeometry y="300" width="255" height="8" as="geometry" />
        </mxCell>
        <mxCell id="5w9AlxM-pXS2CwVHZlCb-311" value="InsertStudent()" style="text;strokeColor=none;fillColor=none;align=left;verticalAlign=top;spacingLeft=4;spacingRight=4;overflow=hidden;rotatable=0;points=[[0,0.5],[1,0.5]];portConstraint=eastwest;whiteSpace=wrap;html=1;fontSize=19;" parent="5w9AlxM-pXS2CwVHZlCb-306" vertex="1">
          <mxGeometry y="308" width="255" height="26" as="geometry" />
        </mxCell>
        <mxCell id="5w9AlxM-pXS2CwVHZlCb-312" value="UpdateStudent()" style="text;strokeColor=none;fillColor=none;align=left;verticalAlign=top;spacingLeft=4;spacingRight=4;overflow=hidden;rotatable=0;points=[[0,0.5],[1,0.5]];portConstraint=eastwest;whiteSpace=wrap;html=1;fontSize=19;" parent="5w9AlxM-pXS2CwVHZlCb-306" vertex="1">
          <mxGeometry y="334" width="255" height="26" as="geometry" />
        </mxCell>
        <mxCell id="5w9AlxM-pXS2CwVHZlCb-313" value="DeleteStudent()" style="text;strokeColor=none;fillColor=none;align=left;verticalAlign=top;spacingLeft=4;spacingRight=4;overflow=hidden;rotatable=0;points=[[0,0.5],[1,0.5]];portConstraint=eastwest;whiteSpace=wrap;html=1;fontSize=19;" parent="5w9AlxM-pXS2CwVHZlCb-306" vertex="1">
          <mxGeometry y="360" width="255" height="26" as="geometry" />
        </mxCell>
        <mxCell id="5w9AlxM-pXS2CwVHZlCb-314" value="ShowStudent()" style="text;strokeColor=none;fillColor=none;align=left;verticalAlign=top;spacingLeft=4;spacingRight=4;overflow=hidden;rotatable=0;points=[[0,0.5],[1,0.5]];portConstraint=eastwest;whiteSpace=wrap;html=1;fontSize=19;" parent="5w9AlxM-pXS2CwVHZlCb-306" vertex="1">
          <mxGeometry y="386" width="255" height="26" as="geometry" />
        </mxCell>
        <mxCell id="5w9AlxM-pXS2CwVHZlCb-322" style="edgeStyle=orthogonalEdgeStyle;rounded=0;orthogonalLoop=1;jettySize=auto;html=1;exitX=1;exitY=0.5;exitDx=0;exitDy=0;entryX=0;entryY=0.5;entryDx=0;entryDy=0;endArrow=none;endFill=0;fontSize=19;" parent="1" source="5w9AlxM-pXS2CwVHZlCb-315" edge="1">
          <mxGeometry relative="1" as="geometry">
            <mxPoint x="-1435" y="971" as="targetPoint" />
          </mxGeometry>
        </mxCell>
        <mxCell id="5w9AlxM-pXS2CwVHZlCb-323" style="edgeStyle=orthogonalEdgeStyle;rounded=0;orthogonalLoop=1;jettySize=auto;html=1;exitX=1;exitY=0.5;exitDx=0;exitDy=0;entryX=0.005;entryY=0.923;entryDx=0;entryDy=0;entryPerimeter=0;endArrow=none;endFill=0;fontSize=19;" parent="1" source="5w9AlxM-pXS2CwVHZlCb-312" target="5w9AlxM-pXS2CwVHZlCb-298" edge="1">
          <mxGeometry relative="1" as="geometry" />
        </mxCell>
        <mxCell id="5w9AlxM-pXS2CwVHZlCb-324" value="1" style="text;html=1;align=center;verticalAlign=middle;resizable=0;points=[];autosize=1;strokeColor=none;fillColor=none;fontSize=19;fontStyle=0" parent="1" vertex="1">
          <mxGeometry x="-1570" y="1354" width="30" height="40" as="geometry" />
        </mxCell>
        <mxCell id="9R0aWSbxY7jMIysIA1T6-3" value="&lt;font style=&quot;font-size: 19px;&quot;&gt;หน้าสมัครทุน ใช้ตาราง student ,&amp;nbsp;&lt;span style=&quot;text-wrap: wrap; font-size: 19px;&quot;&gt;ScholarshipRegistrations ,&amp;nbsp;&lt;/span&gt;&lt;span style=&quot;text-wrap: wrap; font-size: 19px;&quot;&gt;StudentSkills , skills&lt;/span&gt;&lt;/font&gt;" style="text;html=1;align=center;verticalAlign=middle;resizable=0;points=[];autosize=1;strokeColor=none;fillColor=none;fontSize=19;" parent="1" vertex="1">
          <mxGeometry x="-2360" y="720" width="670" height="40" as="geometry" />
        </mxCell>
        <mxCell id="9R0aWSbxY7jMIysIA1T6-4" value="หน้า การตรวจสอบสถานะสมัครทุน เก็บข้อมูลอะไรไหม ทำอย่างไง คอลัมที่เก็บข้อมูลว่าเด็กคนไหนผ่าน ไม่ผ่าน กำลังดำเนินการ" style="text;html=1;align=center;verticalAlign=middle;resizable=0;points=[];autosize=1;strokeColor=none;fillColor=none;fontSize=19;" parent="1" vertex="1">
          <mxGeometry x="-2665" y="590" width="990" height="40" as="geometry" />
        </mxCell>
        <mxCell id="9R0aWSbxY7jMIysIA1T6-5" value="หน้านิสิต login เข้ามาเจอหน้า&amp;nbsp; home หน้าหลักบัญชี" style="text;html=1;align=center;verticalAlign=middle;resizable=0;points=[];autosize=1;strokeColor=none;fillColor=none;fontSize=19;" parent="1" vertex="1">
          <mxGeometry x="-2260" y="813" width="420" height="40" as="geometry" />
        </mxCell>
        <mxCell id="9R0aWSbxY7jMIysIA1T6-6" value="หน้าแอดมิน login เข้ามาเจอหน้า หน้าหลัก โชว์ตารางทุนทั้งหมด มีเปิด ปิด ทุน ทำสำเนาทุน&amp;nbsp;" style="text;html=1;align=center;verticalAlign=middle;resizable=0;points=[];autosize=1;strokeColor=none;fillColor=none;fontSize=19;" parent="1" vertex="1">
          <mxGeometry x="-2305" y="893" width="730" height="40" as="geometry" />
        </mxCell>
        <mxCell id="9R0aWSbxY7jMIysIA1T6-7" value="แอดมิน หน้าเปิดรับสมัครทุน ใช้ตาราง&amp;nbsp;&lt;span style=&quot;font-size: 19px; text-wrap: wrap;&quot;&gt;Scholarships มียืนยันข้อมูลทุนที่ต้องการประกาศ พอเสร็จแล้วไปหน้าหน้าหลักหน่วยงาน&lt;/span&gt;" style="text;html=1;align=center;verticalAlign=middle;resizable=0;points=[];autosize=1;strokeColor=none;fillColor=none;fontSize=19;" parent="1" vertex="1">
          <mxGeometry x="-1020" y="860" width="990" height="40" as="geometry" />
        </mxCell>
        <mxCell id="9R0aWSbxY7jMIysIA1T6-9" value="หน้าเพิ่มหน่วยงาน ใช้ตาราง&amp;nbsp;&lt;span style=&quot;font-size: 19px;&quot;&gt;Organization ,&amp;nbsp;&lt;/span&gt;&lt;span style=&quot;font-size: 19px; text-wrap: wrap;&quot;&gt;ScholarshipOrganization ,&amp;nbsp;&lt;/span&gt;&lt;span style=&quot;font-size: 19px; text-wrap: wrap;&quot;&gt;ScholarshipRequirement , skills&lt;/span&gt;" style="text;html=1;align=center;verticalAlign=middle;resizable=0;points=[];autosize=1;strokeColor=none;fillColor=none;fontSize=19;" parent="1" vertex="1">
          <mxGeometry x="-845" y="983" width="850" height="40" as="geometry" />
        </mxCell>
        <mxCell id="9R0aWSbxY7jMIysIA1T6-11" value="หน้า matching Show รายชื่อ นิสิตที่สมัครกับคณะ" style="text;html=1;align=center;verticalAlign=middle;resizable=0;points=[];autosize=1;strokeColor=none;fillColor=none;fontSize=19;" parent="1" vertex="1">
          <mxGeometry x="-1975" y="500" width="410" height="40" as="geometry" />
        </mxCell>
        <mxCell id="L-7rOuLdzJRXirqBtoFT-1" value="&lt;span style=&quot;font-size: 19px; font-weight: 400;&quot;&gt;SkillTypes&lt;/span&gt;" style="swimlane;fontStyle=1;align=center;verticalAlign=top;childLayout=stackLayout;horizontal=1;startSize=32;horizontalStack=0;resizeParent=1;resizeParentMax=0;resizeLast=0;collapsible=1;marginBottom=0;whiteSpace=wrap;html=1;fontSize=19;" parent="1" vertex="1">
          <mxGeometry x="-2152.5" y="1908" width="255" height="196" as="geometry" />
        </mxCell>
        <mxCell id="L-7rOuLdzJRXirqBtoFT-2" value="&lt;span style=&quot;font-size: 19px;&quot;&gt;skill_type_id :&amp;nbsp;&lt;/span&gt;&lt;span style=&quot;font-size: 19px;&quot;&gt;int (PK)&lt;/span&gt;" style="text;strokeColor=none;fillColor=none;align=left;verticalAlign=top;spacingLeft=4;spacingRight=4;overflow=hidden;rotatable=0;points=[[0,0.5],[1,0.5]];portConstraint=eastwest;whiteSpace=wrap;html=1;fontSize=19;" parent="L-7rOuLdzJRXirqBtoFT-1" vertex="1">
          <mxGeometry y="32" width="255" height="26" as="geometry" />
        </mxCell>
        <mxCell id="L-7rOuLdzJRXirqBtoFT-3" value="&lt;span style=&quot;font-size: 19px;&quot;&gt;skill_type_name :string&lt;/span&gt;" style="text;strokeColor=none;fillColor=none;align=left;verticalAlign=top;spacingLeft=4;spacingRight=4;overflow=hidden;rotatable=0;points=[[0,0.5],[1,0.5]];portConstraint=eastwest;whiteSpace=wrap;html=1;fontSize=19;" parent="L-7rOuLdzJRXirqBtoFT-1" vertex="1">
          <mxGeometry y="58" width="255" height="26" as="geometry" />
        </mxCell>
        <mxCell id="L-7rOuLdzJRXirqBtoFT-5" value="" style="line;strokeWidth=1;fillColor=none;align=left;verticalAlign=middle;spacingTop=-1;spacingLeft=3;spacingRight=3;rotatable=0;labelPosition=right;points=[];portConstraint=eastwest;strokeColor=inherit;fontSize=19;" parent="L-7rOuLdzJRXirqBtoFT-1" vertex="1">
          <mxGeometry y="84" width="255" height="8" as="geometry" />
        </mxCell>
        <mxCell id="L-7rOuLdzJRXirqBtoFT-6" value="Insert&lt;span style=&quot;text-align: center; font-size: 19px;&quot;&gt;Skills&lt;/span&gt;()" style="text;strokeColor=none;fillColor=none;align=left;verticalAlign=top;spacingLeft=4;spacingRight=4;overflow=hidden;rotatable=0;points=[[0,0.5],[1,0.5]];portConstraint=eastwest;whiteSpace=wrap;html=1;fontSize=19;" parent="L-7rOuLdzJRXirqBtoFT-1" vertex="1">
          <mxGeometry y="92" width="255" height="26" as="geometry" />
        </mxCell>
        <mxCell id="L-7rOuLdzJRXirqBtoFT-7" value="Update&lt;span style=&quot;text-align: center; font-size: 19px;&quot;&gt;Skills&lt;/span&gt;()" style="text;strokeColor=none;fillColor=none;align=left;verticalAlign=top;spacingLeft=4;spacingRight=4;overflow=hidden;rotatable=0;points=[[0,0.5],[1,0.5]];portConstraint=eastwest;whiteSpace=wrap;html=1;fontSize=19;" parent="L-7rOuLdzJRXirqBtoFT-1" vertex="1">
          <mxGeometry y="118" width="255" height="26" as="geometry" />
        </mxCell>
        <mxCell id="L-7rOuLdzJRXirqBtoFT-8" value="Delete&lt;span style=&quot;text-align: center; font-size: 19px;&quot;&gt;Skills&lt;/span&gt;()" style="text;strokeColor=none;fillColor=none;align=left;verticalAlign=top;spacingLeft=4;spacingRight=4;overflow=hidden;rotatable=0;points=[[0,0.5],[1,0.5]];portConstraint=eastwest;whiteSpace=wrap;html=1;fontSize=19;" parent="L-7rOuLdzJRXirqBtoFT-1" vertex="1">
          <mxGeometry y="144" width="255" height="26" as="geometry" />
        </mxCell>
        <mxCell id="L-7rOuLdzJRXirqBtoFT-9" value="Show&lt;span style=&quot;text-align: center; font-size: 19px;&quot;&gt;Skills&lt;/span&gt;()" style="text;strokeColor=none;fillColor=none;align=left;verticalAlign=top;spacingLeft=4;spacingRight=4;overflow=hidden;rotatable=0;points=[[0,0.5],[1,0.5]];portConstraint=eastwest;whiteSpace=wrap;html=1;fontSize=19;" parent="L-7rOuLdzJRXirqBtoFT-1" vertex="1">
          <mxGeometry y="170" width="255" height="26" as="geometry" />
        </mxCell>
        <mxCell id="dIXmok4EV5-vIt5Vql0c-12" style="edgeStyle=orthogonalEdgeStyle;rounded=0;orthogonalLoop=1;jettySize=auto;html=1;endArrow=none;endFill=0;" parent="1" source="dIXmok4EV5-vIt5Vql0c-1" target="L-7rOuLdzJRXirqBtoFT-1" edge="1">
          <mxGeometry relative="1" as="geometry">
            <Array as="points">
              <mxPoint x="-1700" y="2010" />
              <mxPoint x="-1700" y="2010" />
            </Array>
          </mxGeometry>
        </mxCell>
        <mxCell id="dIXmok4EV5-vIt5Vql0c-1" value="&lt;span style=&quot;font-size: 19px; font-weight: 400;&quot;&gt;Skills_SkillTypes&lt;/span&gt;" style="swimlane;fontStyle=1;align=center;verticalAlign=top;childLayout=stackLayout;horizontal=1;startSize=32;horizontalStack=0;resizeParent=1;resizeParentMax=0;resizeLast=0;collapsible=1;marginBottom=0;whiteSpace=wrap;html=1;fontSize=19;" parent="1" vertex="1">
          <mxGeometry x="-1642.5" y="1920" width="255" height="196" as="geometry" />
        </mxCell>
        <mxCell id="dIXmok4EV5-vIt5Vql0c-9" value="skill_id :&amp;nbsp;int (PK,FK)" style="text;strokeColor=none;fillColor=none;align=left;verticalAlign=top;spacingLeft=4;spacingRight=4;overflow=hidden;rotatable=0;points=[[0,0.5],[1,0.5]];portConstraint=eastwest;whiteSpace=wrap;html=1;fontSize=19;" parent="dIXmok4EV5-vIt5Vql0c-1" vertex="1">
          <mxGeometry y="32" width="255" height="26" as="geometry" />
        </mxCell>
        <mxCell id="dIXmok4EV5-vIt5Vql0c-2" value="&lt;span style=&quot;font-size: 19px;&quot;&gt;skill_type_id :&amp;nbsp;&lt;/span&gt;&lt;span style=&quot;font-size: 19px;&quot;&gt;int (PK,FK)&lt;/span&gt;" style="text;strokeColor=none;fillColor=none;align=left;verticalAlign=top;spacingLeft=4;spacingRight=4;overflow=hidden;rotatable=0;points=[[0,0.5],[1,0.5]];portConstraint=eastwest;whiteSpace=wrap;html=1;fontSize=19;" parent="dIXmok4EV5-vIt5Vql0c-1" vertex="1">
          <mxGeometry y="58" width="255" height="26" as="geometry" />
        </mxCell>
        <mxCell id="dIXmok4EV5-vIt5Vql0c-4" value="" style="line;strokeWidth=1;fillColor=none;align=left;verticalAlign=middle;spacingTop=-1;spacingLeft=3;spacingRight=3;rotatable=0;labelPosition=right;points=[];portConstraint=eastwest;strokeColor=inherit;fontSize=19;" parent="dIXmok4EV5-vIt5Vql0c-1" vertex="1">
          <mxGeometry y="84" width="255" height="8" as="geometry" />
        </mxCell>
        <mxCell id="dIXmok4EV5-vIt5Vql0c-5" value="Insert&lt;span style=&quot;text-align: center; font-size: 19px;&quot;&gt;Skills&lt;/span&gt;()" style="text;strokeColor=none;fillColor=none;align=left;verticalAlign=top;spacingLeft=4;spacingRight=4;overflow=hidden;rotatable=0;points=[[0,0.5],[1,0.5]];portConstraint=eastwest;whiteSpace=wrap;html=1;fontSize=19;" parent="dIXmok4EV5-vIt5Vql0c-1" vertex="1">
          <mxGeometry y="92" width="255" height="26" as="geometry" />
        </mxCell>
        <mxCell id="dIXmok4EV5-vIt5Vql0c-6" value="Update&lt;span style=&quot;text-align: center; font-size: 19px;&quot;&gt;Skills&lt;/span&gt;()" style="text;strokeColor=none;fillColor=none;align=left;verticalAlign=top;spacingLeft=4;spacingRight=4;overflow=hidden;rotatable=0;points=[[0,0.5],[1,0.5]];portConstraint=eastwest;whiteSpace=wrap;html=1;fontSize=19;" parent="dIXmok4EV5-vIt5Vql0c-1" vertex="1">
          <mxGeometry y="118" width="255" height="26" as="geometry" />
        </mxCell>
        <mxCell id="dIXmok4EV5-vIt5Vql0c-7" value="Delete&lt;span style=&quot;text-align: center; font-size: 19px;&quot;&gt;Skills&lt;/span&gt;()" style="text;strokeColor=none;fillColor=none;align=left;verticalAlign=top;spacingLeft=4;spacingRight=4;overflow=hidden;rotatable=0;points=[[0,0.5],[1,0.5]];portConstraint=eastwest;whiteSpace=wrap;html=1;fontSize=19;" parent="dIXmok4EV5-vIt5Vql0c-1" vertex="1">
          <mxGeometry y="144" width="255" height="26" as="geometry" />
        </mxCell>
        <mxCell id="dIXmok4EV5-vIt5Vql0c-8" value="Show&lt;span style=&quot;text-align: center; font-size: 19px;&quot;&gt;Skills&lt;/span&gt;()" style="text;strokeColor=none;fillColor=none;align=left;verticalAlign=top;spacingLeft=4;spacingRight=4;overflow=hidden;rotatable=0;points=[[0,0.5],[1,0.5]];portConstraint=eastwest;whiteSpace=wrap;html=1;fontSize=19;" parent="dIXmok4EV5-vIt5Vql0c-1" vertex="1">
          <mxGeometry y="170" width="255" height="26" as="geometry" />
        </mxCell>
        <mxCell id="dIXmok4EV5-vIt5Vql0c-11" style="edgeStyle=orthogonalEdgeStyle;rounded=0;orthogonalLoop=1;jettySize=auto;html=1;endArrow=none;endFill=0;" parent="1" source="5w9AlxM-pXS2CwVHZlCb-270" target="dIXmok4EV5-vIt5Vql0c-1" edge="1">
          <mxGeometry relative="1" as="geometry">
            <Array as="points">
              <mxPoint x="-1490" y="1745" />
            </Array>
          </mxGeometry>
        </mxCell>
        <mxCell id="dIXmok4EV5-vIt5Vql0c-13" value="Has" style="text;html=1;align=center;verticalAlign=middle;resizable=0;points=[];autosize=1;strokeColor=none;fillColor=none;fontSize=19;fontStyle=0" parent="1" vertex="1">
          <mxGeometry x="-1800" y="1970" width="60" height="40" as="geometry" />
        </mxCell>
        <mxCell id="dIXmok4EV5-vIt5Vql0c-14" value="1..*" style="text;html=1;align=center;verticalAlign=middle;resizable=0;points=[];autosize=1;strokeColor=none;fillColor=none;fontSize=19;fontStyle=0" parent="1" vertex="1">
          <mxGeometry x="-1680" y="1960" width="50" height="40" as="geometry" />
        </mxCell>
        <mxCell id="dIXmok4EV5-vIt5Vql0c-15" value="1..*" style="text;html=1;align=center;verticalAlign=middle;resizable=0;points=[];autosize=1;strokeColor=none;fillColor=none;fontSize=19;fontStyle=0" parent="1" vertex="1">
          <mxGeometry x="-1475" y="1868" width="50" height="40" as="geometry" />
        </mxCell>
        <mxCell id="dIXmok4EV5-vIt5Vql0c-16" value="1" style="text;html=1;align=center;verticalAlign=middle;resizable=0;points=[];autosize=1;strokeColor=none;fillColor=none;fontSize=19;fontStyle=0" parent="1" vertex="1">
          <mxGeometry x="-1480" y="1739" width="30" height="40" as="geometry" />
        </mxCell>
        <mxCell id="dIXmok4EV5-vIt5Vql0c-17" value="1" style="text;html=1;align=center;verticalAlign=middle;resizable=0;points=[];autosize=1;strokeColor=none;fillColor=none;fontSize=19;fontStyle=0" parent="1" vertex="1">
          <mxGeometry x="-1890" y="1970" width="30" height="40" as="geometry" />
        </mxCell>
        <mxCell id="dIXmok4EV5-vIt5Vql0c-18" value="Has" style="text;html=1;align=center;verticalAlign=middle;resizable=0;points=[];autosize=1;strokeColor=none;fillColor=none;fontSize=19;fontStyle=0" parent="1" vertex="1">
          <mxGeometry x="-1490" y="1810" width="60" height="40" as="geometry" />
        </mxCell>
        <mxCell id="QZs1DKez_FSuAjMzzkD2-2" value="master data" style="text;html=1;align=center;verticalAlign=middle;resizable=0;points=[];autosize=1;strokeColor=none;fillColor=none;fontSize=17;" parent="1" vertex="1">
          <mxGeometry x="-2155" y="1858" width="110" height="30" as="geometry" />
        </mxCell>
        <mxCell id="QZs1DKez_FSuAjMzzkD2-3" value="&lt;font style=&quot;font-size: 18px;&quot;&gt;แอดมิน เพิ่ม type skill&amp;nbsp;&lt;/font&gt;" style="text;html=1;align=center;verticalAlign=middle;resizable=0;points=[];autosize=1;strokeColor=none;fillColor=none;" parent="1" vertex="1">
          <mxGeometry x="-2620" y="1750" width="190" height="40" as="geometry" />
        </mxCell>
        <mxCell id="BmXPt9EanWhrnK-uzXcy-2" style="edgeStyle=orthogonalEdgeStyle;rounded=0;orthogonalLoop=1;jettySize=auto;html=1;entryX=1;entryY=0.5;entryDx=0;entryDy=0;endArrow=none;endFill=0;" parent="1" source="5w9AlxM-pXS2CwVHZlCb-276" target="5w9AlxM-pXS2CwVHZlCb-265" edge="1">
          <mxGeometry relative="1" as="geometry" />
        </mxCell>
        <mxCell id="BmXPt9EanWhrnK-uzXcy-4" value="&lt;span style=&quot;font-weight: 400;&quot;&gt;datetimeavailable&lt;/span&gt;" style="swimlane;fontStyle=1;align=center;verticalAlign=top;childLayout=stackLayout;horizontal=1;startSize=31;horizontalStack=0;resizeParent=1;resizeParentMax=0;resizeLast=0;collapsible=1;marginBottom=0;whiteSpace=wrap;html=1;fontSize=19;" parent="1" vertex="1">
          <mxGeometry x="-1137.5" y="530" width="275" height="310" as="geometry" />
        </mxCell>
        <mxCell id="BmXPt9EanWhrnK-uzXcy-5" value="datetime_id: int (PK)" style="text;strokeColor=none;fillColor=none;align=left;verticalAlign=top;spacingLeft=4;spacingRight=4;overflow=hidden;rotatable=0;points=[[0,0.5],[1,0.5]];portConstraint=eastwest;whiteSpace=wrap;html=1;fontSize=19;" parent="BmXPt9EanWhrnK-uzXcy-4" vertex="1">
          <mxGeometry y="31" width="275" height="26" as="geometry" />
        </mxCell>
        <mxCell id="BmXPt9EanWhrnK-uzXcy-6" value="regist_id&lt;span style=&quot;font-size: 19px;&quot;&gt;: int(FK)&lt;/span&gt;" style="text;strokeColor=none;fillColor=none;align=left;verticalAlign=top;spacingLeft=4;spacingRight=4;overflow=hidden;rotatable=0;points=[[0,0.5],[1,0.5]];portConstraint=eastwest;whiteSpace=wrap;html=1;fontSize=19;" parent="BmXPt9EanWhrnK-uzXcy-4" vertex="1">
          <mxGeometry y="57" width="275" height="26" as="geometry" />
        </mxCell>
        <mxCell id="BmXPt9EanWhrnK-uzXcy-7" value="date_available: string" style="text;strokeColor=none;fillColor=none;align=left;verticalAlign=top;spacingLeft=4;spacingRight=4;overflow=hidden;rotatable=0;points=[[0,0.5],[1,0.5]];portConstraint=eastwest;whiteSpace=wrap;html=1;fontSize=19;" parent="BmXPt9EanWhrnK-uzXcy-4" vertex="1">
          <mxGeometry y="83" width="275" height="26" as="geometry" />
        </mxCell>
        <mxCell id="BmXPt9EanWhrnK-uzXcy-17" value="&lt;span style=&quot;font-size: 19px;&quot;&gt;is_parttime : string&lt;/span&gt;" style="text;strokeColor=none;fillColor=none;align=left;verticalAlign=top;spacingLeft=4;spacingRight=4;overflow=hidden;rotatable=0;points=[[0,0.5],[1,0.5]];portConstraint=eastwest;whiteSpace=wrap;html=1;fontSize=19;" parent="BmXPt9EanWhrnK-uzXcy-4" vertex="1">
          <mxGeometry y="109" width="275" height="26" as="geometry" />
        </mxCell>
        <mxCell id="BmXPt9EanWhrnK-uzXcy-8" value="start_time: string" style="text;strokeColor=none;fillColor=none;align=left;verticalAlign=top;spacingLeft=4;spacingRight=4;overflow=hidden;rotatable=0;points=[[0,0.5],[1,0.5]];portConstraint=eastwest;whiteSpace=wrap;html=1;fontSize=19;" parent="BmXPt9EanWhrnK-uzXcy-4" vertex="1">
          <mxGeometry y="135" width="275" height="26" as="geometry" />
        </mxCell>
        <mxCell id="BmXPt9EanWhrnK-uzXcy-9" value="end_time: string" style="text;strokeColor=none;fillColor=none;align=left;verticalAlign=top;spacingLeft=4;spacingRight=4;overflow=hidden;rotatable=0;points=[[0,0.5],[1,0.5]];portConstraint=eastwest;whiteSpace=wrap;html=1;fontSize=19;" parent="BmXPt9EanWhrnK-uzXcy-4" vertex="1">
          <mxGeometry y="161" width="275" height="26" as="geometry" />
        </mxCell>
        <mxCell id="BmXPt9EanWhrnK-uzXcy-10" value="" style="line;strokeWidth=1;fillColor=none;align=left;verticalAlign=middle;spacingTop=-1;spacingLeft=3;spacingRight=3;rotatable=0;labelPosition=right;points=[];portConstraint=eastwest;strokeColor=inherit;fontSize=19;" parent="BmXPt9EanWhrnK-uzXcy-4" vertex="1">
          <mxGeometry y="187" width="275" height="8" as="geometry" />
        </mxCell>
        <mxCell id="BmXPt9EanWhrnK-uzXcy-11" value="Insert()" style="text;strokeColor=none;fillColor=none;align=left;verticalAlign=top;spacingLeft=4;spacingRight=4;overflow=hidden;rotatable=0;points=[[0,0.5],[1,0.5]];portConstraint=eastwest;whiteSpace=wrap;html=1;fontSize=19;" parent="BmXPt9EanWhrnK-uzXcy-4" vertex="1">
          <mxGeometry y="195" width="275" height="26" as="geometry" />
        </mxCell>
        <mxCell id="BmXPt9EanWhrnK-uzXcy-12" value="Update()" style="text;strokeColor=none;fillColor=none;align=left;verticalAlign=top;spacingLeft=4;spacingRight=4;overflow=hidden;rotatable=0;points=[[0,0.5],[1,0.5]];portConstraint=eastwest;whiteSpace=wrap;html=1;fontSize=19;" parent="BmXPt9EanWhrnK-uzXcy-4" vertex="1">
          <mxGeometry y="221" width="275" height="26" as="geometry" />
        </mxCell>
        <mxCell id="BmXPt9EanWhrnK-uzXcy-13" value="Delete()" style="text;strokeColor=none;fillColor=none;align=left;verticalAlign=top;spacingLeft=4;spacingRight=4;overflow=hidden;rotatable=0;points=[[0,0.5],[1,0.5]];portConstraint=eastwest;whiteSpace=wrap;html=1;fontSize=19;" parent="BmXPt9EanWhrnK-uzXcy-4" vertex="1">
          <mxGeometry y="247" width="275" height="26" as="geometry" />
        </mxCell>
        <mxCell id="BmXPt9EanWhrnK-uzXcy-14" value="Show()" style="text;strokeColor=none;fillColor=none;align=left;verticalAlign=top;spacingLeft=4;spacingRight=4;overflow=hidden;rotatable=0;points=[[0,0.5],[1,0.5]];portConstraint=eastwest;whiteSpace=wrap;html=1;fontSize=19;" parent="BmXPt9EanWhrnK-uzXcy-4" vertex="1">
          <mxGeometry y="273" width="275" height="37" as="geometry" />
        </mxCell>
        <mxCell id="eASZ_lu2cZmlfqscDOg--5" value="1" style="text;html=1;align=center;verticalAlign=middle;resizable=0;points=[];autosize=1;strokeColor=none;fillColor=none;fontSize=19;fontStyle=0" vertex="1" parent="1">
          <mxGeometry x="-1340" y="800" width="30" height="40" as="geometry" />
        </mxCell>
        <mxCell id="eASZ_lu2cZmlfqscDOg--6" value="1" style="text;html=1;align=center;verticalAlign=middle;resizable=0;points=[];autosize=1;strokeColor=none;fillColor=none;fontSize=19;fontStyle=0" vertex="1" parent="1">
          <mxGeometry x="-1210" y="580" width="30" height="40" as="geometry" />
        </mxCell>
        <mxCell id="eASZ_lu2cZmlfqscDOg--7" value="&lt;span style=&quot;color: rgb(17, 17, 17); font-family: Roboto, Helvetica, sans-serif; font-size: 19px; text-align: left; text-wrap: wrap; background-color: rgb(255, 255, 255);&quot;&gt;Has&lt;/span&gt;" style="text;html=1;align=center;verticalAlign=middle;resizable=0;points=[];autosize=1;strokeColor=none;fillColor=none;fontSize=19;fontStyle=0" vertex="1" parent="1">
          <mxGeometry x="-1317.5" y="580" width="60" height="40" as="geometry" />
        </mxCell>
      </root>
    </mxGraphModel>
  </diagram>
</mxfile>
